<svg width="402" height="97" viewBox="0 0 402 97" fill="none" xmlns="http://www.w3.org/2000/svg">
<path d="M-33.1896 0.0555267C-22.1795 -0.892761 -14.6852 10.4404 -9.41138 20.2239C-4.13761 30.0074 3.88871 41.0398 14.8064 39.5364C18.2207 38.686 21.55 37.5247 24.7525 36.0671C28.4781 34.8197 32.436 34.4236 36.335 34.9079C40.2339 35.3923 43.9746 36.7447 47.2817 38.8657C46.5416 38.4031 52.1623 19.2987 53.527 18.0497C67.1278 6.48534 62.5479 32.4359 70.8749 35.6276C94.8382 44.8792 122.433 37.7324 146.882 45.4805C157.013 48.6954 168.648 56.7905 179.658 55.7035C189.836 54.6858 198.301 47.4465 208.664 47.5159C224.37 47.6546 231.679 48.626 246.321 42.7513C254.301 39.5595 263.322 41.5949 271.764 43.6534C294.455 49.2505 317.355 45.0642 340.555 43.5146C347.494 43.0289 354.711 42.4275 360.586 38.7501C366.461 35.0726 370.208 28.689 374.788 23.3925C383.94 12.8315 396.764 6.14297 410.663 4.68129C427.364 2.99288 446.4 11.4118 450.911 27.5788C453.848 38.1256 450.124 49.3662 445.406 59.2653C440.945 69.3415 434.673 78.5137 426.901 86.326C406.616 105.569 376.014 109.039 348.095 106.471C320.177 103.904 292.744 96.3177 264.825 97.4973C219.975 99.3707 175.98 123.702 132.148 114.011C117.714 110.796 104.206 104.02 89.657 101.452C64.9998 97.0809 39.9956 105.13 14.9914 106.541C4.55951 107.119 -6.26561 106.541 -15.6335 101.915C-35.0632 92.3164 -44.4542 69.7427 -48.7565 49.7362C-51.9254 35.5351 -54.863 1.92896 -33.1896 0.0555267Z" fill="#72B8DA"/>
<path d="M419.272 83.0651C418.451 82.601 417.602 82.1915 416.727 81.8393C414.021 81.3536 413.003 85.1467 412.101 87.7834C410.251 93.7044 404.098 97.0349 398.5 99.6716C393.874 101.985 388.901 103.95 383.928 105.801C371.983 107.51 359.874 107.767 347.867 106.564C320.111 103.974 292.516 96.4105 264.597 97.59C219.747 99.4635 175.753 123.795 131.92 114.104C117.487 110.889 103.978 104.112 89.4293 101.545C64.7721 97.1737 39.7678 105.223 14.7636 106.633C10.8506 106.876 6.92635 106.876 3.01333 106.633C-2.77532 104.127 -8.21718 100.885 -13.1781 96.9887C-18.6361 92.5008 -23.0555 86.8824 -26.1312 80.521C-27.6693 80.1226 -29.296 80.2446 -30.7574 80.8679C-37.6965 67.9158 -42.3227 54.4085 -40.7267 39.583C-40.6775 38.0937 -40.2815 36.6365 -39.5701 35.3272C-37.8816 32.6212 -34.1576 32.043 -31.0118 32.5518C-15.9306 35.0034 -7.71929 54.4085 7.47752 56.0275C18.719 57.2071 28.8502 47.9787 40.1379 48.2563C46.6839 48.4182 52.6979 51.795 59.105 53.2752C71.4568 56.1894 84.2943 51.98 96.993 52.0725C120.124 52.2344 140.941 66.4124 163.933 68.2627C181.998 69.6504 200.803 63.7757 217.92 58.618C233.718 53.8534 245.931 47.5855 263.395 49.3664C278.082 50.8929 292.423 55.2874 307.158 56.3051C326.792 57.542 346.33 52.6962 363.111 42.4278C369.356 38.5884 375.185 34.0089 381.846 30.8634C397.066 23.9247 417.791 27.3478 426.396 41.7108C433.89 54.2235 429.31 64.4464 425.679 77.0054C424.8 80.1971 422.417 84.1984 419.272 83.0651Z" fill="#A9E8F1"/>
<path d="M415.987 75.2941C416.92 77.4929 417.438 79.8454 417.514 82.2328C417.253 82.1086 416.983 82.008 416.704 81.9321C413.998 81.4464 412.98 85.2395 412.078 87.8762C410.228 93.7972 404.075 97.1277 398.477 99.7644C393.851 102.077 388.878 104.043 383.905 105.894C371.96 107.603 359.851 107.859 347.844 106.657C320.088 104.066 292.493 96.5032 264.574 97.6828C219.724 99.5562 175.73 123.888 131.897 114.197C117.464 110.982 103.955 104.205 89.4062 101.638C64.749 97.2665 39.7448 105.315 14.7406 106.726C10.8276 106.969 6.90327 106.969 2.99026 106.726C-2.79839 104.219 -8.24025 100.978 -13.2012 97.0815C-18.6592 92.5936 -23.0785 86.9751 -26.1543 80.6137C-27.6923 80.2154 -29.319 80.3374 -30.7804 80.9607C-33.042 76.8398 -35.0129 72.566 -36.6787 68.1704C-27.6346 63.5447 -17.2953 71.3391 -7.60356 74.9241C7.20002 80.4056 23.5534 75.2941 39.3053 75.2016C72.544 74.9934 102.382 97.1277 135.552 99.2787C166.2 101.268 195.414 86.0028 226.062 83.7593C264.921 80.8913 303.665 99.1168 342.108 92.7332C367.228 88.3619 390.544 73.9758 415.987 75.2941Z" fill="#CDEDF9"/>
<path d="M42.9114 79.827C46.3633 78.8532 49.9205 78.3018 53.5052 78.1849C57.1615 78.398 60.7719 79.106 64.2378 80.2896C66.9904 81.1916 65.7876 85.5861 63.0351 84.6378C59.8427 83.5441 56.5497 82.7694 53.2046 82.3249C49.8908 81.6164 46.5079 81.2828 43.1196 81.3304C42.2869 81.3304 42.0787 80.012 42.9114 79.8501V79.827Z" fill="white"/>
<path d="M109.825 94.5604C114.29 95.5781 118.777 96.5957 123.287 97.3821C125.601 97.7753 124.606 101.383 122.339 100.828C117.785 99.7607 113.374 98.1534 109.201 96.0406C108.345 95.6012 108.97 94.3522 109.825 94.5604Z" fill="white"/>
<path d="M145.725 102.886C175.447 99.07 202.025 82.0704 232.557 82.4635C239.496 82.4635 239.496 92.8946 232.557 93.311C203.135 95.115 175.54 106.032 145.725 104.875C145.467 104.875 145.22 104.773 145.038 104.591C144.856 104.409 144.753 104.162 144.753 103.904C144.753 103.646 144.856 103.399 145.038 103.217C145.22 103.035 145.467 102.933 145.725 102.933V102.886Z" fill="white"/>
<path d="M288.051 84.222C294.481 84.6846 300.911 84.6846 307.342 84.9853C308.637 84.9853 308.591 87.1362 307.342 86.9975C300.888 86.3267 294.504 85.3553 288.051 84.8234C287.681 84.8234 287.657 84.1989 288.051 84.222Z" fill="white"/>
<path d="M348.419 92.3393C362.069 91.1352 375.633 89.1038 389.036 86.2564C400.417 83.6891 411.057 80.8905 418.204 70.9914C422.229 65.371 430.995 70.205 427.618 76.496C421.997 86.8809 411.08 91.9923 399.7 93.3801C382.93 95.4154 365.351 93.1719 348.419 94.1896C347.216 94.1896 347.262 92.4549 348.419 92.3393Z" fill="white"/>
</svg>
