<svg width="392" height="52" viewBox="0 0 392 52" fill="none" xmlns="http://www.w3.org/2000/svg">
<path d="M364.075 18.9615L35.5532 20.0406C30.9049 20.0627 26.4453 20.9652 23.1494 22.5509C19.8535 24.1366 17.9894 26.2764 17.9646 28.5025L17.8171 50.0302C17.8122 50.7449 25.1398 46.7082 25.6097 46.3622C27.923 44.6324 29.0885 42.4759 31.4199 40.7202C35.6672 37.5116 42.4394 33.1926 51.4967 33.8689C54.1544 34.2183 56.734 34.6884 59.2006 35.273C62.0904 35.7725 65.1993 35.9233 68.2542 35.712C71.3092 35.5008 74.2168 34.9341 76.7215 34.0616C76.1448 34.2616 80.4603 42.0919 81.5179 42.562C92.0582 47.2289 88.5708 36.6318 95.0528 35.293C116.497 30.9172 139.287 34.898 159.501 28.9332C163.843 27.6531 168.329 26.3209 173.349 25.8653C183.838 24.875 189.933 30.1163 199.603 30.6959C211.069 31.3729 219.695 29.4674 231.455 31.9173C239.678 33.6125 242.248 31.2016 249.144 29.7237C266.179 26.0512 287.129 30.7615 304.638 31.367C310.031 31.5559 315.639 31.7786 320.195 33.2792C324.752 34.7797 327.647 37.3793 331.192 39.5462C334.531 41.6378 338.711 43.3865 343.489 44.6909C348.268 45.9952 353.549 46.8292 359.027 47.1443C367.02 47.5221 375.042 46.4206 381.452 44.0654L381.566 27.3083C381.568 25.0815 379.729 22.9538 376.451 21.39C373.174 19.8261 368.725 18.9531 364.075 18.9615Z" fill="#2B4D81"/>
<path d="M14.0821 45.7287C22.6384 46.0536 28.493 41.8151 32.6175 38.1591C36.742 34.5032 43.0094 30.3752 51.4924 30.9071C54.1443 31.215 56.7294 31.6388 59.2152 32.1733C62.1081 32.6282 65.1837 32.7656 68.2158 32.5753C71.2479 32.3851 74.1591 31.872 76.7353 31.0739C76.1588 31.248 80.4793 38.3464 81.537 38.8079C92.08 43.0787 88.5861 33.4288 95.0672 32.2192C113.719 28.7136 135.151 31.3039 154.176 28.3568C162.06 27.134 171.125 24.0904 179.681 24.467C187.59 24.8199 194.152 27.4936 202.207 27.4413C214.417 27.3495 220.101 26.9692 231.467 29.119C237.663 30.287 244.68 29.5062 251.248 28.7182C268.901 26.5764 286.692 28.0766 304.722 28.5943C310.115 28.7574 315.723 28.9629 320.281 30.317C324.839 31.6712 327.735 34.0383 331.282 35.9985C338.37 39.9071 348.321 42.3645 359.122 42.8733C372.1 43.4592 386.919 40.2762 390.466 34.2455C392.777 30.3114 389.911 26.1359 386.268 22.4624C382.826 18.7224 377.974 15.3235 371.952 12.4347C356.233 5.32213 332.453 4.1086 310.744 5.13571C289.035 6.16282 267.691 9.05729 245.992 8.6894C211.132 8.10642 176.995 -0.840098 142.897 2.87985C131.669 4.11364 121.152 6.67117 109.835 7.66414C90.6569 9.35459 71.2405 6.42178 51.8072 5.96034C43.6994 5.7717 35.2831 6.01461 27.9892 7.76075C12.8611 11.3839 5.50338 19.8123 2.10798 27.2719C-0.391579 32.5672 -2.76084 45.0865 14.0821 45.7287Z" fill="#72B8DA"/>
<path d="M366.015 13.6686C365.376 13.8435 364.715 13.9981 364.034 14.1314C361.929 14.3192 361.148 12.9096 360.453 11.9302C359.03 9.7305 354.255 8.50622 349.911 7.53885C346.321 6.68955 342.46 5.97031 338.599 5.29412C329.318 4.68809 319.906 4.62359 310.569 5.10202C288.986 6.13733 267.516 9.0236 245.816 8.65572C210.957 8.07273 176.82 -0.873782 142.722 2.84616C131.494 4.07995 120.976 6.63748 109.66 7.63046C90.4818 9.3209 71.0653 6.38809 51.632 5.92666C48.5909 5.84623 45.5403 5.85625 42.4979 5.95666C37.9917 6.90478 33.7533 8.12553 29.887 9.58881C25.6328 11.2736 22.183 13.3767 19.7759 15.753C18.5793 15.9052 17.3151 15.8639 16.1807 15.6356C10.7535 20.4755 7.12291 25.5162 8.32574 31.0318C8.36012 31.5861 8.66425 32.1277 9.21391 32.6133C10.5196 33.6165 13.413 33.8222 15.8596 33.6248C27.5892 32.6735 34.0217 25.4278 45.8391 24.7863C54.5806 24.3184 62.4325 27.7283 71.2077 27.5962C76.2966 27.5192 80.9802 26.2466 85.9646 25.6792C95.5736 24.5626 105.542 26.0971 115.414 26.0302C133.394 25.9109 149.613 20.5791 167.49 19.8316C181.537 19.2688 196.14 21.408 209.432 23.2845C221.701 25.0181 231.179 27.3205 244.758 26.6129C256.18 26.007 267.339 24.3343 278.795 23.9178C294.061 23.4072 309.237 25.1614 322.255 28.9416C327.1 30.3551 331.619 32.0452 336.789 33.1993C348.603 35.7437 364.722 34.4164 371.448 29.0469C377.305 24.3692 373.771 20.5748 370.98 15.9083C370.305 14.7222 368.463 13.2386 366.015 13.6686Z" fill="#A9E8F1"/>
<path d="M363.441 16.57C364.172 15.749 364.581 14.8718 364.646 13.9827C364.443 14.0296 364.232 14.0678 364.016 14.0967C361.911 14.2845 361.129 12.8749 360.435 11.8955C359.011 9.6958 354.237 8.47152 349.892 7.50415C346.302 6.65485 342.441 5.93561 338.58 5.25942C329.299 4.65339 319.887 4.58889 310.551 5.06733C288.967 6.10263 267.497 8.98891 245.798 8.62102C210.938 8.03804 176.802 -0.908482 142.704 2.81147C131.476 4.04526 120.958 6.60279 109.642 7.59576C90.4633 9.28621 71.0469 6.3534 51.6135 5.89196C48.5724 5.81153 45.5218 5.82155 42.4794 5.92196C37.9732 6.87008 33.7348 8.09083 29.8685 9.55412C25.6143 11.2389 22.1646 13.342 19.7574 15.7183C18.5608 15.8705 17.2966 15.8292 16.1622 15.6009C14.3936 17.1409 12.8507 18.7371 11.5445 20.3779C18.5631 22.077 26.6203 19.1487 34.1632 17.7892C45.6847 15.7106 58.3839 17.5719 70.6284 17.5661C96.4659 17.5588 119.717 9.24179 145.507 8.35627C169.336 7.53747 192.006 13.1462 215.825 13.9032C246.025 14.8718 276.189 7.98733 306.056 10.2658C325.572 11.8292 343.659 17.1257 363.441 16.57Z" fill="#CDEDF9"/>
<path d="M39.1667 8.67171C26.4314 9.44546 12.6472 13.7445 11.2531 20.3967C10.9002 22.0425 15.9853 22.5252 17.5764 21.237C20.4157 18.8338 22.284 16.4425 26.1643 14.3201C29.8082 12.209 34.3602 10.4987 39.5039 9.30781C39.6269 9.26988 39.7217 9.21427 39.7746 9.14907C39.8276 9.08387 39.8358 9.01249 39.7981 8.94534C39.7605 8.87818 39.6789 8.81877 39.5652 8.77574C39.4516 8.73272 39.3119 8.70834 39.1664 8.70615L39.1667 8.67171Z" fill="white"/>
<path d="M73.4454 15.8349C76.1262 16.1887 78.89 16.3849 81.6762 16.4193C84.5189 16.3306 87.3273 16.0578 90.0246 15.6083C92.1665 15.2654 91.2428 13.6324 89.1007 13.9925C86.6163 14.4078 84.0546 14.7046 81.4531 14.8787C78.8753 15.1509 76.2448 15.2837 73.611 15.2747C72.9637 15.2768 72.7985 15.7682 73.4454 15.8263L73.4454 15.8349Z" fill="white"/>
<path d="M125.505 10.1787C128.977 9.78841 132.468 9.39807 135.976 9.09377C137.776 8.94148 137.012 7.60069 135.248 7.81315C131.705 8.22227 128.272 8.83192 125.023 9.62918C124.356 9.79498 124.839 10.2584 125.505 10.1787Z" fill="white"/>
<path d="M153.425 6.98673C176.52 8.33166 197.137 14.5929 220.872 14.3686C226.266 14.3509 226.293 10.4673 220.9 10.33C198.033 9.73346 176.61 5.7395 153.43 6.24617C153.23 6.24683 153.038 6.28557 152.896 6.35386C152.753 6.42215 152.673 6.5144 152.673 6.61032C152.672 6.70624 152.751 6.79797 152.892 6.86533C153.033 6.93269 153.225 6.97016 153.425 6.9695L153.425 6.98673Z" fill="white"/>
<path d="M264.02 13.5721C269.02 13.3835 274.019 13.367 279.018 13.2387C280.025 13.2354 279.995 12.4347 279.023 12.4895C274.005 12.7557 269.04 13.1337 264.022 13.3482C263.734 13.3492 263.715 13.5817 264.02 13.5721Z" fill="white"/>
<path d="M310.96 10.3967C321.568 10.8101 332.107 11.5318 342.519 12.5577C351.359 13.4845 359.623 14.4993 365.153 18.1665C368.268 20.2487 375.094 18.4267 372.485 16.0931C368.143 12.241 359.669 10.3659 350.826 9.87827C337.795 9.16332 324.124 10.0435 310.965 9.70781C310.03 9.71088 310.062 10.3566 310.96 10.3967Z" fill="white"/>
</svg>
