<svg width="402" height="874" viewBox="0 0 402 874" fill="none" xmlns="http://www.w3.org/2000/svg">
<path d="M504.23 -14H-102.209V683.771H504.23V-14Z" fill="url(#paint0_linear_2003_301)"/>
<path d="M504.125 555.839C494.936 554.202 485.025 555.563 475.718 555.563H218.679C213.678 555.563 208.676 555.662 203.688 555.563C199.422 555.425 196.521 557.813 193.029 561.483L184.221 570.975C182.764 572.554 180.979 574.211 179.285 573.303C178.571 572.85 177.927 572.178 177.395 571.33L168.508 558.701C165.357 554.221 161.524 555.563 157.455 555.563H8.68728C5.06424 555.563 1.16553 554.28 -2.35249 555.346C-10.3862 557.793 -17.3041 565.213 -24.2876 571.133C-24.7991 571.679 -25.4062 571.988 -26.0335 572.021C-26.6415 571.906 -27.2083 571.498 -27.6481 570.856C-29.5741 568.09 -31.2911 565.013 -32.7676 561.68C-36.2463 554.991 -39.423 555.563 -44.5819 555.563H-102.209V676.213H504.256V555.839H504.125Z" fill="#92BEB9"/>
<path d="M367.775 549.506L363.036 541.376L352.889 540.35L347.481 528.668L339.368 506.31L331.597 479.334L329.904 467.652L319.757 431.56L307.942 407.169L295.406 404.644L280.52 433.612L273.419 454.45L268.352 483.932L247.729 478.348L229.469 505.284L222.027 531.706L200.735 542.895L192.609 562.727L184.497 569.831L179.43 571.805L169.965 559.609C169.965 559.609 162.522 542.323 159.818 537.745C157.114 533.167 154.068 519.452 154.068 519.452L139.865 505.737L136.57 481.9L106.811 431.066L80.4392 435.132L23.9933 455.99L22.6806 466.646C22.6806 466.646 17.4823 493.148 17.1148 494.608C16.7472 496.068 14.0693 507.316 14.0693 507.316L5.95686 533.246L0.548555 549.506L-1.48612 551.025L-11.2788 556.63L-25.154 568.825L-38.0184 535.772L-62.0276 529.674L-65.7426 521.031L-75.1677 498.16L-87.3364 473.769L-92.7447 462.087L-102.209 451.412V580.665L-80.576 580.507L183.158 578.534L225.426 575.988L288.646 575.495L281.885 568.371L306.905 564.819L310.292 565.825L330.915 562.786L376.557 561.76L367.775 549.506Z" fill="#92BEB9"/>
<path d="M198.373 547.907C198.373 547.907 201.825 538.533 202.101 538.04C202.376 537.547 204.503 532.574 204.503 532.574L211.066 531.706H222.093C222.093 531.706 227.554 531.903 230.337 534.212C232.995 536.858 235.494 539.849 237.806 543.151L233.395 542.283C233.395 542.283 231.295 540.309 229.378 544.256C227.462 548.203 225.834 551.32 225.834 551.32C225.834 551.32 223.432 554.774 222.001 554.478L219.98 554.063L217.354 550.314C217.072 549.881 216.733 549.539 216.36 549.31C215.986 549.081 215.585 548.97 215.181 548.982C214.778 548.995 214.381 549.132 214.014 549.385C213.647 549.638 213.318 550.001 213.048 550.452C211.798 552.155 210.889 554.349 210.423 556.787L208.979 562.115C208.979 562.115 207.351 565.292 206.774 563.417C206.266 561.708 205.883 559.922 205.632 558.089C205.225 555.25 204.439 552.565 203.321 550.196C203.038 549.687 202.687 549.272 202.292 548.976C201.897 548.681 201.465 548.512 201.024 548.479L199.2 549.623L198.373 547.907Z" fill="#D9EDF2"/>
<path d="M228.749 507.71L242.348 460.745L245.039 450.878C246.095 449.851 247.116 448.745 248.098 447.563C249.626 446.379 251.194 445.319 252.797 444.386C252.797 444.386 259.597 460.666 259.597 460.962C259.597 461.258 266.882 480.261 266.882 480.261L268.996 485.293L269.849 491.213C269.849 491.213 269.849 496.383 269.757 495.949C268.777 495.08 267.686 494.529 266.556 494.332C265.426 494.135 264.28 494.296 263.194 494.804C261.665 495.671 260.218 496.832 258.888 498.258L257.063 501.869C257.063 501.869 255.751 504.454 254.766 504.316C253.626 503.979 252.568 503.181 251.708 502.007C251.708 501.573 246.339 494.666 246.339 494.666L241.442 497.389L232.345 504.454L228.749 507.71Z" fill="#D9EDF2"/>
<path d="M273.093 455.14C274.467 454.921 275.75 454.002 276.729 452.535C277.885 450.342 278.942 448.035 279.893 445.628L285.734 432.664C285.734 432.664 289.186 426.171 290.63 424.02C291.54 422.665 292.569 421.503 293.689 420.567C294.206 420.057 294.793 419.727 295.406 419.6C296.019 419.474 296.644 419.555 297.233 419.837C298.079 420.331 298.813 421.18 299.347 422.284L300.489 425.599L302.025 430.789C302.025 430.789 302.799 432.94 302.983 432.506C303.784 431.768 304.552 430.951 305.28 430.059C306.238 428.618 307.905 425.895 307.905 425.895L315.48 442.017L323.618 458.297C323.618 458.297 330.182 468.953 330.182 468.519C330.182 468.085 324.288 417.686 324.288 417.686C323.679 408.766 322.424 399.972 320.547 391.46C317.764 380.232 315.952 377.765 315.755 377.351C315.558 376.937 312.303 371.155 312.303 371.155L306.75 372.161C306.379 373.026 305.962 373.845 305.503 374.608C305.214 374.884 299.557 387.711 299.557 387.711L284.513 395.348L278.764 422.58L273.093 455.14Z" fill="#D9EDF2"/>
<path d="M285.47 531.272C285.47 531.272 284.564 529.772 285.746 526.24C286.436 524.136 287.385 522.248 288.542 520.675C289.427 519.829 290.444 519.345 291.491 519.272C292.539 519.2 293.581 519.54 294.514 520.26C296.761 521.665 298.911 523.397 300.934 525.43L305.725 530.739C305.628 532.064 305.246 533.304 304.635 534.271C303.651 535.458 302.554 536.416 301.38 537.113L298.308 537.665C295.835 535.677 293.231 534.083 290.537 532.909C288.871 532.117 287.122 531.796 285.378 531.962L285.47 531.272Z" fill="#D9EDF2"/>
<path d="M351.184 536.836L361.488 531.272C361.488 531.272 365.558 527.877 368.052 530.857C368.731 531.514 369.309 532.382 369.746 533.404C370.183 534.425 370.469 535.575 370.585 536.777C370.585 536.777 371.662 539.362 369.273 542.224C366.883 545.085 366.647 544.197 366.647 544.197L364.744 543.664L363.3 543.112H354.347L351.184 536.836Z" fill="#D9EDF2"/>
<path d="M-59.6633 564.344C-62.1574 578.355 -66.0036 585.459 -75.0481 591.398C-67.6095 586.521 -59.7384 583.297 -51.6821 581.828C-49.8347 581.374 -47.9506 581.374 -46.1032 581.828C-43.7876 582.782 -41.6137 584.389 -39.6972 586.564L-5.12082 620.702C-16.7238 627.276 -28.6424 632.513 -40.7736 636.371C-16.9258 633.789 7.0155 633.822 30.8602 636.469C11.1697 626.247 -8.29754 606.869 -20.7025 581.315C-27.5154 567.383 -32.3855 550.866 -38.017 535.77L-50.5269 544.216C-57.0248 548.676 -57.9831 554.28 -59.5583 563.515L-59.6633 564.344Z" fill="#79A0AB"/>
<path d="M75.2168 461.988C75.1563 460.774 75.3643 459.563 75.8084 458.545C76.2526 457.527 76.9081 456.758 77.673 456.357C78.4379 455.957 79.2693 455.947 80.0382 456.33C80.807 456.713 81.4702 457.467 81.9246 458.475C82.1487 459.17 82.4661 459.789 82.8567 460.291C83.7362 461.1 84.8257 460.034 85.5871 458.969C87.7546 455.928 89.7198 452.577 91.4548 448.964C92.1445 447.299 93.0038 445.807 94.0014 444.544C94.5066 443.918 95.114 443.508 95.7604 443.355C96.4068 443.203 97.0686 443.313 97.677 443.675C98.4839 444.411 99.1279 445.489 99.5279 446.773C100.404 449.143 101.092 451.66 101.576 454.272C101.245 450.148 100.351 446.171 98.9503 442.59C98.2257 440.815 97.185 439.381 95.9462 438.45C94.7073 437.519 93.3196 437.128 91.9405 437.321C90.6278 437.676 89.3151 438.801 88.0024 439.294C84.0643 440.913 79.1417 437.597 75.9781 441.564C74.6049 443.624 73.7234 446.309 73.4709 449.201C72.5777 455.246 72.2376 461.447 72.4601 467.632C74.1254 464.631 75.5978 461.4 76.8576 457.982L75.2168 461.988Z" fill="#79A0AB"/>
<path d="M111.629 482.925C116.679 489.95 121.492 497.33 126.069 505.065C120.11 510.782 114.539 517.365 109.437 524.72C112.779 522.47 116.212 520.539 119.715 518.938L127.906 530.521C128.528 531.313 129.064 532.245 129.495 533.284C129.986 534.864 130.267 536.574 130.322 538.316C132.658 565.943 133.564 566.12 116.447 583.861C105.512 595.187 93.6451 603.791 82.4347 614.309C74.4141 621.847 62.4161 633.786 52.2427 632.227L129.232 643.968C136.859 645.132 144.499 646.277 152.165 646.514C166.867 646.968 181.478 643.968 195.852 639.607C204.279 637.062 224.009 623.406 232.029 629.741C217.817 618.462 202.647 610.156 186.938 605.054C184.313 604.206 180.9 602.134 181.136 598.049C186.233 595.341 190.814 590.81 194.486 584.847C175.82 571.468 161.577 564.265 152.966 531.863C151.587 526.654 150.498 521.03 147.925 516.925C146.035 513.886 143.462 511.932 141.585 508.854C140.258 506.404 139.134 503.72 138.237 500.862C133.93 488.634 128.639 477.249 122.485 466.96C120.608 463.842 118.547 460.685 115.83 459.54C114.084 458.904 112.254 459.043 110.56 459.939C108.866 460.836 107.381 462.452 106.286 464.592C105.226 466.768 104.499 469.268 104.156 471.916C103.814 474.563 103.864 477.291 104.304 479.905C104.667 479.629 104.999 479.269 105.289 478.84L104.724 480.616C106.496 477.596 109.686 480.221 111.629 482.925Z" fill="#79A0AB"/>
<path d="M15.8047 499.718C15.8047 499.718 19.0996 485.036 20.4779 478.209C21.8562 471.381 23.8646 455.989 23.8646 455.989C23.8646 455.989 33.9593 448.628 34.2349 448.096C34.5106 447.563 43.8701 438.782 43.8701 438.782L48.2677 433C52.6891 430.875 57.2633 429.55 61.8934 429.053C65.4079 428.422 68.9502 428.211 72.4869 428.422L77.4357 429.053L83.356 418.713L91.3372 404.228L93.6738 400.084C95.5387 398.23 97.7799 397.426 100.001 397.815C102.405 398.043 104.796 398.524 107.155 399.256L122.986 403.202L127.384 428.027L132.635 458.022L138.975 497.488L127.384 484.01L116.882 474.696L110.962 470.75L107.103 476.334L104.635 480.064C104.635 480.064 102.009 483.162 101.878 476.531C101.747 469.901 101.878 461.238 101.878 461.238C101.878 461.238 102.154 452.338 101.051 447.997C100.482 445.567 99.5423 443.371 98.3076 441.584C97.5898 441.122 96.8173 440.884 96.0366 440.884C95.256 440.884 94.4834 441.122 93.7657 441.584C92.1628 443.035 90.6819 444.771 89.355 446.754C89.355 446.754 86.7296 451.312 83.8548 449.852C83.0609 449.521 82.321 448.948 81.6816 448.167C81.0423 447.385 80.5174 446.414 80.1399 445.313C80.1399 445.313 77.1076 442.827 76.2806 447.168C75.4536 451.51 74.9679 456.68 74.9679 456.68C74.823 461.936 73.9276 467.085 72.3425 471.776C69.8615 478.189 68.4832 478.603 68.4832 478.603C67.5739 479.48 66.5477 480.045 65.4771 480.26C64.4065 480.475 63.3176 480.334 62.2872 479.847C61.2173 479.553 60.2308 478.783 59.4559 477.636C58.6811 476.488 58.1537 475.017 57.9422 473.414C57.9422 473.414 49.0028 477.558 44.7365 481.899C42.2209 484.408 40.145 487.793 38.685 491.766L37.1622 498.179L36.6109 503.349C36.6109 503.349 36.204 506.447 35.2982 506.862C34.9762 506.951 34.6446 506.923 34.3315 506.778C34.0184 506.634 33.7331 506.378 33.4998 506.033C33.4998 506.033 31.4389 498.376 31.3076 497.764C31.1763 497.153 29.9949 487.622 28.1309 484.523C27.6725 483.658 27.0862 482.965 26.4186 482.499C25.751 482.033 25.0204 481.807 24.2847 481.84C24.2847 481.84 20.1103 482.964 15.8047 499.718Z" fill="#D9EDF2"/>
<path d="M95.772 408.017C100.496 409.065 105.256 409.723 110.028 409.99C113.051 410.003 116.047 409.132 118.849 407.425L123.024 403.044L133.092 463.033L137.174 489.2C137.174 489.2 129.298 481.563 125.977 474.932C122.656 468.302 117.143 448.391 115.476 455.535C113.808 462.678 108.348 475.426 108.348 466.25C108.348 457.074 108.925 422.58 106.772 431.144C104.62 439.708 104.961 413.72 104.961 413.72C104.961 413.72 96.1133 409.043 95.772 408.017Z" fill="#C0D3E6"/>
<path d="M56.4195 431.026C57.9186 430.322 59.5084 430.17 61.0549 430.582C62.6015 430.994 64.0595 431.958 65.3064 433.394C56.6986 443.72 47.3249 452.514 37.3722 459.6C38.5044 462.976 39.1192 466.691 39.1715 470.471C39.2237 474.251 38.7121 478.001 37.6742 481.445C37.0835 483.418 35.7839 485.51 34.4843 484.642C33.7623 484.168 33.4079 482.925 32.9878 481.918C32.1989 480.142 31.0226 478.835 29.6616 478.223C28.3005 477.611 26.84 477.731 25.5317 478.564C27.1973 479.528 28.7048 481.021 29.9508 482.942C31.1969 484.863 32.1523 487.166 32.7516 489.693C33.9322 494.78 34.6132 500.098 34.7731 505.48C36.6109 505.796 37.0441 501.79 37.1491 499.008C37.3985 492.397 40.1683 486.457 43.7126 482.471C47.3253 478.706 51.3131 475.829 55.5268 473.946C56.6984 473.211 57.9596 472.855 59.2286 472.9C60.5413 473.098 61.7621 474.183 63.0617 474.538C64.3881 474.758 65.7294 474.442 66.9476 473.623C68.1658 472.805 69.2169 471.513 69.9927 469.881C71.5048 466.581 72.6077 462.898 73.2482 459.008C75.0597 450.345 76.8975 441.426 76.5299 432.348C76.5497 431.854 76.5016 431.359 76.3887 430.894C76.2758 430.429 76.1004 430.004 75.8736 429.645C75.3994 429.202 74.8395 429.015 74.2852 429.112C68.9781 429.174 63.68 429.781 58.4279 430.928L56.4195 431.026Z" fill="#C0D3E6"/>
<path d="M245.894 450.089C244.909 451.788 244.212 453.819 243.859 456.009C244.278 454.799 244.949 453.828 245.769 453.244C246.589 452.66 247.513 452.494 248.401 452.773C248.868 453.005 249.31 453.337 249.714 453.76C253.088 457.075 254.715 461.771 255.897 467.336C257.078 472.901 259.664 480.459 259.021 486.221C258.816 488.051 258.312 489.776 257.553 491.24C256.795 492.704 255.806 493.861 254.676 494.608C253.533 495.312 252.281 495.516 251.065 495.199C249.848 494.881 248.715 494.054 247.797 492.812C248.668 494.855 249.995 496.365 251.54 497.07C253.084 497.776 254.745 497.63 256.225 496.66C258.247 495.219 259.69 492.299 261.751 490.937C262.614 490.382 263.548 490.123 264.486 490.177C265.423 490.232 266.341 490.599 267.173 491.253C267.55 491.678 268.014 491.894 268.486 491.865C269.444 491.569 269.365 489.457 269.011 488.076C267.052 480.879 264.753 473.902 262.132 467.198C259.576 460.041 256.602 453.239 253.245 446.873C251.801 444.15 249.504 445.748 247.797 447.465C247.088 448.207 246.447 449.09 245.894 450.089V450.089Z" fill="#C0D3E6"/>
<path d="M230.77 505.579C230.77 505.579 243.332 498.593 245.052 498.85C246.771 499.106 248.99 508.716 251.76 509.723C254.529 510.729 260.712 499.363 263.298 501.948C265.884 504.533 281.545 519.55 281.02 518.78C280.494 518.011 269.757 495.89 269.757 495.89C269.757 495.89 264.676 492.377 260.883 496.265C257.089 500.152 256.406 502.994 256.406 502.994C256.406 502.994 254.175 505.579 250.736 500.152C247.296 494.725 246.286 494.607 246.286 494.607C246.286 494.607 233.001 503.013 230.77 505.579Z" fill="#79A0AB"/>
<path d="M307.355 372.576C307.355 372.576 311.49 388.362 309.599 389.665C307.813 390.462 305.939 390.723 304.086 390.434L299.557 387.711C299.557 387.711 308.562 400.005 309.77 404.662C310.978 409.319 309.429 423.29 309.429 423.29C309.429 423.29 323.199 451.765 324.748 453.837C326.297 455.909 329.395 462.362 329.395 461.336C329.395 460.31 325.772 434.42 324.748 421.218C323.724 408.017 321.65 394.322 319.93 388.362C318.529 383.884 316.915 379.565 315.099 375.437L312.303 371.155L307.355 372.576Z" fill="#C0D3E6"/>
<path d="M283.595 437.893C283.595 437.893 294.096 423.132 296.853 426.25C299.61 429.368 302.996 432.604 302.996 432.604L299.951 424.434C299.951 424.434 298.231 417.705 294.779 419.521C291.326 421.336 283.595 437.893 283.595 437.893Z" fill="#79A0AB"/>
<path d="M305.306 429.999C305.306 429.999 315.453 449.634 321.819 458.948C328.186 468.262 330.221 468.459 330.221 468.459L320.27 451.706L313.037 437.478L307.997 425.835L305.306 429.999Z" fill="#79A0AB"/>
<path d="M304.597 534.271C304.597 534.271 317.199 561.897 322.411 554.004C327.622 546.111 329.276 544.926 329.276 544.926L333.109 543.289C333.109 543.289 342.167 555.661 345.724 556.885C349.281 558.108 350.66 556.885 350.66 556.885L354.309 543.072H363.262C364.745 543.072 370.429 552.938 371.413 555.03C378.345 569.356 366.793 568.626 358.772 572.139C343.637 578.749 329.604 589.899 315.69 601.048L297.614 615.493L322.148 584.097C324.222 581.473 326.493 577.664 325.509 573.875L300.305 578.749C313.721 576.164 300.712 545.203 298.27 537.507C298.309 537.665 303.285 537.527 304.597 534.271Z" fill="#79A0AB"/>
<path d="M283.159 403.201C281.839 411.141 280.869 419.203 280.258 427.335C280.153 427.946 280.135 428.584 280.205 429.206C280.275 429.829 280.432 430.422 280.665 430.947C281.702 432.703 283.592 431.223 284.787 429.703L293.359 418.791C287.981 426.848 283.389 436.01 279.72 446.003C278.237 450.108 276.412 454.923 273.314 455.357L276.031 441.662C278.827 427.612 281.61 413.522 283.474 399.117L283.159 403.201Z" fill="#C0D3E6"/>
<path d="M298.034 418.83L301.434 422.56C302.668 423.922 304.164 425.362 305.622 424.691C306.595 424.075 307.394 422.964 307.879 421.554C309.449 417.76 310.448 413.497 310.807 409.062L310.413 414.785C310.321 416.524 310.15 418.252 309.901 419.955C309.463 422.549 308.659 424.97 307.545 427.057C306.431 429.144 305.032 430.847 303.442 432.052C303.317 432.179 303.175 432.265 303.026 432.306C302.877 432.347 302.724 432.341 302.576 432.289C302.445 432.184 302.328 432.041 302.234 431.868C302.139 431.695 302.068 431.496 302.025 431.282C300.712 427 299.399 422.698 298.087 418.416L298.034 418.83Z" fill="#C0D3E6"/>
<path d="M363.326 530.64C363.326 530.64 358.075 539.303 361.396 541.355L364.691 543.427L354.347 543.289L351.184 536.895L363.326 530.64Z" fill="#C0D3E6"/>
<path d="M292.785 520.28C292.785 520.28 303.483 531.409 298.81 532.238C295.619 532.704 292.405 532.704 289.214 532.238L298.259 537.665C298.259 537.665 303.772 535.889 304.586 534.271C305.095 533.208 305.465 532.009 305.676 530.738C305.676 530.738 296.946 518.622 292.785 520.28Z" fill="#C0D3E6"/>
<path d="M214.94 531.823C214.94 531.823 224.536 536.362 222.895 540.466C221.254 544.571 214.665 542.124 212.748 545.005C210.831 547.886 209.007 562.153 209.007 562.153C209.007 562.153 211.632 550.313 213.562 549.129C214.209 548.827 214.897 548.781 215.559 548.995C216.221 549.21 216.836 549.677 217.342 550.353C217.342 550.353 222.357 558.522 225.783 551.359C227.241 548.01 228.941 544.913 230.85 542.124H236.337L230.299 534.231C230.299 534.231 221.792 529.751 214.94 531.823Z" fill="#C0D3E6"/>
<path d="M287.347 574.291L260.463 565.213L252.232 563.24L236.336 542.125C236.336 542.125 231.649 539.461 229.339 544.296C227.029 549.131 225.913 552.012 224.272 553.255C222.631 554.498 221.371 556.175 219.94 554.103L217.315 550.354C217.315 550.354 214.085 545.421 211.066 554.498C208.047 563.575 208.979 562.155 208.979 562.155C208.979 562.155 214.361 550.315 217.38 554.912C220.4 559.51 224.784 561.918 227.803 556.136C230.822 550.354 240.142 562.332 240.142 562.332L225.335 568.923L244.803 565.628L250.841 575.928L288.62 575.435L287.347 574.291Z" fill="#79A0AB"/>
<path d="M-25.125 568.824L-0.958267 559.845L22.027 571.823L12.2212 560.753L4.25313 553.392C4.25313 553.392 15.8967 528.035 18.9685 511.952C22.0402 495.87 24.2192 481.978 24.2192 481.978C20.9194 484.781 18.4027 489.279 17.1307 494.646C14.6628 504.118 9.45141 521.168 9.45141 521.168L3.33424 542.322L-0.0393836 551.538L-2.49413 550.63C-2.49413 550.63 -20.4649 562.213 -25.125 568.824Z" fill="#AFDAD6"/>
<path d="M242.086 500.408C242.086 500.408 234.433 503.171 233.501 503.625C231.869 504.857 230.283 506.22 228.749 507.71L222.042 531.705C222.042 531.705 225.848 529.436 231.362 536.343C236.875 543.249 244.843 552.011 244.843 552.011L242.086 500.408Z" fill="#AFDAD6"/>
<path d="M205.003 556.609L200.71 577.802H185.391L184.512 569.909C187.256 568.793 189.705 566.429 191.522 563.141C194.013 558.308 196.302 553.246 198.374 547.985C198.374 547.985 195.919 551.478 199.227 549.702C202.535 547.926 203.165 549.248 205.003 556.609Z" fill="#AFDAD6"/>
<path d="M217.882 572.278C218.801 571.824 244.832 565.628 244.832 565.628L250.87 575.929L211.135 576.876L217.882 572.278Z" fill="#AFDAD6"/>
<path d="M285.379 531.961C284.98 533.63 284.323 535.131 283.462 536.342C281.939 538.651 274.575 552.464 274.575 552.464C274.575 552.464 284.381 546.544 289.907 550.629C295.434 554.714 299.398 564.896 299.398 564.896L306.907 564.758L298.309 537.664C298.309 537.664 290.669 531.725 285.379 531.961Z" fill="#AFDAD6"/>
<path d="M282.543 446.498C282.543 446.498 280.088 453.858 277.03 456.621C275.616 458.044 274.067 459.135 272.435 459.857L268.366 483.932C269.042 486.246 269.539 488.67 269.849 491.154C270.282 494.864 269.757 495.89 269.757 495.89L279.484 514.676L282.543 446.498Z" fill="#AFDAD6"/>
<path d="M320.863 463.073C320.863 463.073 325.457 468.993 327.295 470.966C328.517 472.155 329.842 473.085 331.233 473.729L331.535 482.944C331.535 482.944 339.201 509.209 344.097 521.187C347.249 528.807 350.653 536.183 354.297 543.289C354.297 543.289 350.464 557.378 350.648 557.102C350.832 556.826 336.497 541.414 320.863 463.073Z" fill="#AFDAD6"/>
<path d="M-24.3116 568.922C-16.6205 561.676 -8.48905 555.545 -0.0267375 550.61C0.485214 550.314 0.262048 549.07 -0.249903 549.366C-8.84597 554.126 -17.006 560.505 -24.5348 568.35C-24.7579 568.587 -24.5348 569.139 -24.3116 568.922V568.922Z" fill="#79A0AB"/>
<path d="M0.316369 550.511C11.4481 521.173 19.6024 489.5 24.5093 456.541C24.6406 455.693 23.7611 455.318 23.6298 456.186C18.7066 489.031 10.7535 520.68 0.00132504 550.215C-0.103691 550.531 0.211356 550.827 0.329499 550.511H0.316369Z" fill="#C0D3E6"/>
<path d="M24.0223 456.107C33.0199 450.758 41.3406 443.129 48.6223 433.551C49.0817 432.959 48.4122 431.953 47.9528 432.545C40.7494 442.005 32.5922 449.685 23.7861 455.298C23.4841 455.495 23.6942 456.284 24.0092 456.107H24.0223Z" fill="#C0D3E6"/>
<path d="M47.5303 433.711C57.1722 429.616 67.2398 428.277 77.2103 429.764C77.7354 429.764 77.7354 428.264 77.2103 428.186C67.1726 426.703 57.0393 428.335 47.4384 432.981C47.2152 433.079 47.3071 433.75 47.5303 433.652V433.711Z" fill="#C0D3E6"/>
<path d="M77.0817 430.868C80.1141 425.441 83.1595 420.015 86.1656 414.529L90.1037 407.484C91.3711 404.703 92.9266 402.244 94.7113 400.202C98.4918 396.69 104.451 399.788 108.573 400.676C113.247 401.702 117.92 402.649 122.593 403.675C123.249 403.814 123.525 402.314 122.869 402.176C117.539 401.011 112.196 399.808 106.867 398.703C103.414 397.972 98.9906 396.019 95.6827 398.012C91.9677 400.202 89.4211 407.01 87.0451 411.47C83.6409 417.798 80.2716 424.165 76.9374 430.572C76.8324 430.789 77.0161 431.085 77.1474 430.868H77.0817Z" fill="#C0D3E6"/>
<path d="M122.816 402.688C126.544 425.224 130.416 447.68 134.079 470.235C135.89 481.404 137.64 492.587 139.329 503.782C139.605 505.578 139.618 506.485 140.38 507.571C141.743 509.097 143.203 510.419 144.738 511.517C147.915 514.379 151.052 517.437 154.281 520.022C154.714 520.397 155.095 519.332 154.662 518.917C151.813 516.155 148.873 513.609 145.972 511.024C144.463 509.854 143.007 508.536 141.614 507.077C140.051 505.104 139.933 501.927 139.461 498.967C137.807 488.272 136.109 477.596 134.368 466.94C130.849 445.391 127.213 423.862 123.157 402.57C123.154 402.523 123.145 402.478 123.129 402.437C123.113 402.397 123.092 402.362 123.066 402.335C123.04 402.309 123.011 402.292 122.98 402.284C122.949 402.277 122.917 402.281 122.887 402.294C122.858 402.308 122.83 402.331 122.807 402.362C122.784 402.394 122.766 402.433 122.754 402.476C122.742 402.52 122.736 402.567 122.738 402.613C122.74 402.66 122.748 402.706 122.763 402.747L122.816 402.688Z" fill="#5C7874"/>
<path d="M153.414 520.182C156.575 531.59 160.734 542.314 165.78 552.071C170.685 562.029 176.531 570.858 183.134 578.277C183.554 578.711 184.079 577.704 183.685 577.191C177.465 569.543 171.75 561.012 166.62 551.715C161.551 541.879 157.253 531.199 153.808 519.886C153.703 519.511 153.257 519.787 153.362 520.182H153.414Z" fill="#5C7874"/>
<path d="M58.2678 473.038C52.5707 476.254 46.3092 478.839 41.7016 485.114C39.8908 487.54 38.5332 490.635 37.7635 494.093C37.3669 496.034 37.0555 498.011 36.8315 500.013C36.7002 501.098 36.5952 502.203 36.4246 503.269C36.3458 503.782 36.2277 505.124 35.9782 505.459L33.6023 506.111L33.3922 505.519C32.6965 504.571 32.3683 501.572 32.0795 500.289C31.6726 498.316 31.3182 496.343 30.9506 494.369C30.4424 490.944 29.588 487.657 28.4171 484.621C28.0774 483.751 27.6048 483.015 27.0382 482.474C26.4717 481.932 25.8276 481.602 25.1592 481.509C24.4908 481.417 23.8174 481.565 23.1946 481.941C22.5719 482.318 22.0177 482.912 21.578 483.674C18.3225 488.311 17.1148 495.336 15.1851 501.197C14.9751 501.828 15.6183 502.401 15.8284 501.75C16.826 498.73 17.5742 495.534 18.5588 492.495C19.6614 489.061 21.1842 483.97 23.8095 482.628C29.4804 479.707 31.0162 499.52 32.434 504.512C33.0115 506.486 33.7467 508.814 35.5057 507.334C35.9376 506.809 36.2907 506.152 36.5418 505.408C36.7929 504.663 36.9364 503.847 36.9628 503.013C37.3434 500.25 37.5666 497.467 38.1048 494.784C40.7302 481.74 50.8511 477.833 58.3466 473.511C58.5172 473.413 58.4384 472.978 58.2678 473.077V473.038Z" fill="#79A0AB"/>
<path d="M57.811 472.625C58.3492 482.077 66.6323 482.492 70.3079 477.006C73.0514 472.862 74.1541 466.902 74.8236 461.318C75.2436 457.707 75.5456 454.036 76.1363 450.464C76.4251 448.767 77.0158 444.012 79.1292 445.255C80.1269 445.847 80.9539 448.017 81.7546 449.024C86.7297 454.944 90.1952 444.288 94.3565 442.078C102.233 437.914 101.603 460.884 101.563 466.961C101.563 469.547 101.563 472.132 101.563 474.697C101.563 476.295 101.379 478.644 102.023 480.124C102.889 481.998 104.189 481.406 105.252 480.124C107.393 477.322 109.382 474.267 111.198 470.987C111.527 470.474 111.001 469.685 110.673 470.198C108.665 473.237 106.42 475.999 104.543 479.137C104.335 479.554 104.046 479.864 103.716 480.025C103.06 480.242 102.508 479.176 102.403 478.17C101.773 472.487 102.521 466.152 102.403 460.41C102.285 454.293 102.233 444.012 97.7826 441.071C93.0306 437.914 90.1559 447.149 86.3097 449.221C82.4635 451.293 81.6102 444.387 78.4335 443.597C75.8081 442.946 75.3355 451.293 75.0205 453.938C74.1147 461.318 73.839 469.724 70.4129 475.644C69.6706 477.057 68.7193 478.191 67.6347 478.955C66.55 479.718 65.3618 480.092 64.1645 480.045C61.3028 479.828 58.5199 477.223 58.218 472.645C58.218 472.27 57.811 472.25 57.811 472.625Z" fill="#79A0AB"/>
<path d="M138.594 495.89C130.331 485.577 121.172 477.006 111.369 470.414C111.027 470.177 110.831 470.966 111.159 471.223C121.192 478.679 130.604 487.893 139.198 498.672C138.94 497.775 138.738 496.843 138.594 495.89Z" fill="#79A0AB"/>
<path d="M76.951 430C76.8853 435.012 76.8066 440.024 76.7935 445.056C76.7935 445.688 77.5023 445.688 77.5023 445.056C77.5023 440.024 77.4104 435.012 77.3448 430C77.3448 429.921 77.324 429.846 77.2871 429.79C77.2502 429.735 77.2001 429.704 77.1479 429.704C77.0956 429.704 77.0456 429.735 77.0086 429.79C76.9717 429.846 76.951 429.921 76.951 430V430Z" fill="#79A0AB"/>
<path d="M192.598 562.213C196.956 552.721 200.277 542.282 204.57 532.731C204.688 532.475 204.399 532.218 204.294 532.475C199.975 542.006 196.575 552.386 192.335 561.976C192.23 562.213 192.493 562.45 192.598 562.213Z" fill="#79A0AB"/>
<path d="M204.48 532.889C209.997 531.709 215.588 531.504 221.138 532.278C221.61 532.278 221.61 531.232 221.138 531.173C215.544 530.365 209.903 530.777 204.388 532.396C204.165 532.396 204.27 532.929 204.48 532.889Z" fill="#79A0AB"/>
<path d="M221.715 531.982C229.88 505.302 237.887 478.426 245.448 451.352C245.606 450.799 244.976 450.404 244.805 450.937C236.706 477.656 229.053 504.73 221.518 531.844C221.518 532.002 221.662 532.12 221.715 531.962V531.982Z" fill="#C0D3E6"/>
<path d="M245.199 451.134C247.487 448.269 250.148 446.152 253.01 444.918C253.088 444.884 253.154 444.805 253.194 444.698C253.233 444.59 253.243 444.464 253.22 444.346C253.197 444.228 253.145 444.129 253.073 444.07C253.002 444.011 252.918 443.996 252.839 444.03C249.838 445.141 247.081 447.413 244.845 450.621C244.609 450.937 244.963 451.45 245.199 451.134Z" fill="#C0D3E6"/>
<path d="M252.351 444.602C257.602 456.758 262.42 469.368 267.369 481.859C267.386 481.902 267.409 481.939 267.435 481.968C267.462 481.998 267.493 482.019 267.525 482.031C267.557 482.043 267.591 482.045 267.624 482.038C267.656 482.03 267.688 482.013 267.716 481.987C267.745 481.961 267.77 481.927 267.789 481.887C267.809 481.846 267.823 481.801 267.831 481.752C267.839 481.704 267.841 481.653 267.836 481.604C267.83 481.554 267.819 481.507 267.802 481.464C263.307 468.59 258.251 456.177 252.666 444.306C252.535 444.01 252.207 444.306 252.351 444.602Z" fill="#79A0AB"/>
<path d="M268.812 485.747C273.249 455.673 278.316 425.836 284.644 396.552C284.801 395.841 284.053 395.545 283.908 396.236C277.503 425.498 272.303 455.325 268.34 485.549C268.34 486.003 268.747 486.2 268.812 485.747Z" fill="#C0D3E6"/>
<path d="M284.264 395.92C289.581 393.236 294.923 390.553 300.214 387.751C300.607 387.553 300.437 386.606 300.043 386.823C294.792 389.546 289.436 392.427 284.146 395.269C283.87 395.407 283.989 396.078 284.264 395.92V395.92Z" fill="#C0D3E6"/>
<path d="M299.242 388.56C301.775 383.489 304.296 378.397 306.724 373.208C306.987 372.635 306.383 372.122 306.121 372.675C303.679 377.825 301.329 383.074 298.993 388.343C298.888 388.56 299.137 388.777 299.242 388.56Z" fill="#C0D3E6"/>
<path d="M306.357 372.142C308.588 371.945 310.82 372.142 313.065 371.748C313.564 371.748 313.577 370.485 313.065 370.544C310.781 370.741 308.602 371.452 306.357 371.827C306.212 371.827 306.212 372.162 306.357 372.142Z" fill="#79A0AB"/>
<path d="M332.243 481.465C329.617 459.62 326.992 437.815 324.616 415.911C322.857 399.394 321.006 383.035 312.71 371.097C312.63 370.979 312.522 370.914 312.41 370.916C312.298 370.917 312.191 370.986 312.113 371.106C312.034 371.227 311.991 371.389 311.992 371.557C311.993 371.726 312.039 371.887 312.119 372.004C320.757 384.456 322.227 401.762 324.065 418.851C326.336 439.867 328.804 460.844 331.81 481.643C331.81 482.097 332.295 481.899 332.243 481.465Z" fill="#79A0AB"/>
<path d="M331.995 481.583C337.495 503.566 344.137 525.312 354.061 543.645C354.35 544.197 354.862 543.408 354.573 542.875C344.702 524.543 338.361 502.935 332.257 481.425C332.192 481.208 331.929 481.425 331.995 481.583V481.583Z" fill="#79A0AB"/>
<path d="M354.309 543.683C357.276 543.683 360.23 543.822 363.196 543.861C363.29 543.835 363.375 543.761 363.436 543.651C363.497 543.541 363.53 543.402 363.53 543.259C363.53 543.116 363.497 542.977 363.436 542.867C363.375 542.757 363.29 542.683 363.196 542.657L354.309 542.855C354.236 542.855 354.166 542.898 354.114 542.976C354.063 543.054 354.034 543.159 354.034 543.269C354.034 543.379 354.063 543.484 354.114 543.562C354.166 543.64 354.236 543.683 354.309 543.683V543.683Z" fill="#79A0AB"/>
<path d="M363.496 542.972C366.508 548.987 370.015 554.404 373.932 559.095C374.365 559.627 374.982 558.7 374.549 558.167C370.674 553.47 367.109 548.223 363.903 542.499C363.719 542.163 363.325 542.617 363.496 542.972Z" fill="#79A0AB"/>
<path d="M228.541 508.559C233.95 503.197 239.767 498.831 245.868 495.554C245.918 495.532 245.965 495.496 246.006 495.447C246.046 495.398 246.08 495.337 246.105 495.268C246.13 495.199 246.146 495.124 246.151 495.046C246.157 494.968 246.152 494.889 246.137 494.814C246.123 494.739 246.098 494.669 246.066 494.608C246.033 494.547 245.993 494.496 245.947 494.459C245.901 494.421 245.851 494.398 245.799 494.389C245.748 494.381 245.695 494.388 245.645 494.41C239.416 497.61 233.564 502.272 228.304 508.223C228.134 508.42 228.304 508.815 228.541 508.638V508.559Z" fill="#79A0AB"/>
<path d="M245.959 494.233C248.19 497.311 250.369 501.376 252.929 503.843C253.335 504.354 253.834 504.67 254.361 504.747C254.888 504.825 255.419 504.661 255.883 504.277C257.786 502.58 258.508 498.83 260.49 496.995C261.863 495.736 263.427 495.021 265.034 494.917C266.641 494.813 268.239 495.325 269.679 496.403C269.734 496.447 269.796 496.469 269.858 496.466C269.921 496.464 269.982 496.438 270.036 496.391C270.089 496.343 270.134 496.276 270.166 496.196C270.198 496.115 270.216 496.023 270.217 495.93C270.466 490.844 269.669 485.767 267.933 481.386C267.671 480.755 267.001 481.386 267.277 481.978C268.978 486.16 269.755 491.044 269.495 495.93L270.034 495.476C268.376 494.219 266.522 493.667 264.671 493.879C262.82 494.091 261.043 495.06 259.532 496.679C258.858 497.4 258.249 498.249 257.721 499.205C257.169 500.231 256.605 502.481 255.83 503.034C254.609 503.902 252.509 502.126 251.616 501.06L249.792 498.692C248.558 497.133 247.311 495.634 246.077 494.055C246.054 494.033 246.026 494.024 245.999 494.029C245.971 494.035 245.946 494.054 245.927 494.085C245.909 494.115 245.898 494.155 245.896 494.196C245.895 494.237 245.903 494.278 245.919 494.311L245.959 494.233Z" fill="#79A0AB"/>
<path d="M308.877 423.252C308.047 425.282 307.06 427.156 305.936 428.836C305.379 429.678 304.772 430.444 304.125 431.125C303.285 431.994 303.35 432.27 302.747 431.382C301.591 429.685 301.093 425.975 300.226 423.864C298.769 420.252 296.616 417.667 293.82 419.917C290.066 422.916 286.968 429.784 284.487 434.658C282.662 438.328 281.008 442.176 279.433 446.103C277.858 450.03 276.27 453.878 273.172 454.825C272.765 454.944 272.935 455.91 273.355 455.772C276.361 454.865 278.12 451.234 279.643 447.504C282.077 441.31 284.829 435.412 287.874 429.862C290.092 425.916 294.516 416.7 298.205 421.436C300.462 424.337 301.224 429.33 302.747 433.079C302.763 433.13 302.786 433.174 302.815 433.21C302.844 433.246 302.877 433.273 302.913 433.288C302.949 433.303 302.987 433.306 303.024 433.297C303.061 433.288 303.096 433.268 303.127 433.237C305.605 430.725 307.685 427.424 309.218 423.568C309.231 423.534 309.239 423.497 309.243 423.458C309.246 423.42 309.244 423.38 309.238 423.343C309.231 423.305 309.22 423.27 309.204 423.239C309.188 423.208 309.168 423.182 309.146 423.163C309.124 423.144 309.099 423.131 309.073 423.126C309.047 423.121 309.021 423.123 308.996 423.133C308.971 423.144 308.948 423.161 308.927 423.185C308.907 423.208 308.89 423.238 308.877 423.272V423.252Z" fill="#79A0AB"/>
<path d="M307.603 426.151C314.166 441.164 321.5 455.383 329.538 468.677C329.932 469.328 330.535 468.341 330.155 467.71C322.258 454.374 314.907 440.331 308.141 425.658C308.097 425.551 308.027 425.474 307.946 425.444C307.865 425.414 307.779 425.435 307.708 425.5C307.636 425.565 307.585 425.671 307.566 425.793C307.546 425.915 307.559 426.044 307.603 426.151V426.151Z" fill="#79A0AB"/>
<path d="M350.606 537.23C354.059 535.375 357.55 533.639 361.003 531.764C361.265 531.626 361.147 530.975 360.885 531.132C357.432 533.106 354.019 535.079 350.567 537.052C350.488 537.052 350.567 537.289 350.567 537.25L350.606 537.23Z" fill="#79A0AB"/>
<path d="M354.138 543.072C352.974 547.768 351.823 552.484 350.685 557.22C350.475 558.069 351.132 558.582 351.329 557.714C352.418 552.938 353.468 548.163 354.519 543.368C354.61 542.953 354.23 542.677 354.138 543.072V543.072Z" fill="#79A0AB"/>
<path d="M269.59 496.166C274.617 506.783 280.026 516.985 285.158 527.503C285.342 527.878 285.775 527.503 285.591 527.108C280.511 516.551 275.287 506.171 270.102 495.712C269.878 495.259 269.38 495.712 269.59 496.166Z" fill="#79A0AB"/>
<path d="M285.496 532.12C290.103 533.042 294.555 535.251 298.622 538.632C298.705 538.685 298.797 538.691 298.882 538.649C298.967 538.607 299.039 538.519 299.084 538.403C299.13 538.286 299.145 538.149 299.127 538.017C299.11 537.885 299.061 537.767 298.99 537.685C294.843 534.115 290.211 532.01 285.443 531.528C285.18 531.528 285.194 532.081 285.443 532.12H285.496Z" fill="#79A0AB"/>
<path d="M285.72 530.916C285.064 528.627 286.088 526.042 287.033 524.187C287.678 522.615 288.652 521.409 289.801 520.755C290.95 520.102 292.211 520.039 293.387 520.576C297.968 522.135 302.418 527.285 306.054 531.449C306.277 531.705 306.605 531.271 306.382 530.956C303.835 527.482 301.003 524.511 297.955 522.115C295.539 520.24 292.415 517.971 289.619 519.392C286.823 520.813 283.817 527.088 285.117 531.232C285.274 531.765 285.904 531.37 285.76 530.837L285.72 530.916Z" fill="#79A0AB"/>
<path d="M305.751 530.265C305.234 532.357 304.261 534.125 302.991 535.279C301.72 536.433 300.226 536.906 298.754 536.619C298.19 536.501 297.927 537.803 298.518 537.941C300.184 538.312 301.883 537.755 303.295 536.373C304.707 534.992 305.734 532.883 306.184 530.442C306.2 530.356 306.192 530.264 306.162 530.186C306.133 530.108 306.084 530.052 306.026 530.028C305.969 530.004 305.908 530.016 305.856 530.061C305.804 530.105 305.766 530.178 305.751 530.265V530.265Z" fill="#79A0AB"/>
<path d="M298.154 538.789C301.085 547.735 304.039 556.641 307.014 565.508C307.237 566.179 307.894 565.508 307.671 564.936C304.678 556.069 301.658 547.222 298.613 538.394C298.455 537.921 297.996 538.395 298.154 538.789Z" fill="#79A0AB"/>
<path d="M305.976 390.316C303.639 389.459 301.351 388.317 299.137 386.903C299.034 386.837 298.918 386.836 298.815 386.899C298.712 386.962 298.629 387.084 298.586 387.238C298.542 387.392 298.541 387.567 298.583 387.722C298.625 387.877 298.706 388.001 298.809 388.067C301.089 389.462 303.481 390.404 305.924 390.869C306.134 390.869 306.173 390.395 305.924 390.316H305.976Z" fill="#79A0AB"/>
<path d="M361.199 531.785C364.376 529.023 368.971 529.654 370.323 535.515C371.635 541.04 367.33 546.585 364.114 542.52C363.785 542.126 363.313 542.836 363.641 543.231C364.367 544.054 365.239 544.536 366.146 544.618C367.054 544.699 367.958 544.376 368.744 543.69C369.53 543.003 370.164 541.982 370.566 540.757C370.969 539.531 371.121 538.153 371.005 536.798C370.441 529.279 364.691 527.503 361.002 531.292C360.806 531.509 361.002 531.983 361.199 531.785V531.785Z" fill="#79A0AB"/>
<path d="M331.586 563.397C323.815 563.871 316.214 564.956 308.417 564.364C308.307 564.392 308.207 564.477 308.135 564.606C308.063 564.734 308.023 564.896 308.023 565.064C308.023 565.232 308.063 565.395 308.135 565.523C308.207 565.651 308.307 565.737 308.417 565.765C316.044 566.239 324.169 566.298 331.639 563.792C331.757 563.792 331.757 563.456 331.639 563.456L331.586 563.397Z" fill="#79A0AB"/>
<path d="M329.106 545.105C330.706 544.662 332.257 543.885 333.714 542.796C334.173 542.461 333.714 541.356 333.307 541.77C331.963 542.984 330.514 543.913 329.001 544.533C328.951 544.553 328.908 544.604 328.882 544.672C328.856 544.741 328.85 544.822 328.864 544.898C328.877 544.973 328.911 545.038 328.956 545.077C329.002 545.116 329.056 545.126 329.106 545.105Z" fill="#79A0AB"/>
<path d="M333.109 542.974C337.913 549.526 343.427 559.531 350.594 558.761C351.198 558.761 351.198 557.261 350.594 557.34C343.768 558.287 338.15 548.618 333.358 542.599C333.188 542.382 332.938 542.757 333.109 542.994V542.974Z" fill="#79A0AB"/>
<path d="M252.472 562.391C245.672 553.471 239.083 544.098 232.099 535.514C231.679 534.981 231.075 535.849 231.495 536.422C238.059 545.677 245.305 554.083 252.341 562.608C252.433 562.707 252.564 562.608 252.472 562.391V562.391Z" fill="#79A0AB"/>
<path d="M252.655 563.575C264.71 566.397 276.61 570.559 288.255 576.026C288.82 576.303 289.069 574.961 288.492 574.685C276.798 569.306 264.817 565.463 252.681 563.2C252.661 563.211 252.644 563.231 252.632 563.258C252.619 563.284 252.613 563.316 252.613 563.348C252.613 563.38 252.619 563.411 252.632 563.438C252.644 563.464 252.661 563.484 252.681 563.496L252.655 563.575Z" fill="#79A0AB"/>
<path d="M192.363 561.957C188.525 566.933 183.877 570.29 178.895 571.686C178.396 571.804 178.606 572.948 179.105 572.83C184.204 571.398 188.9 567.7 192.586 562.214C192.616 562.169 192.632 562.109 192.632 562.046C192.632 561.983 192.616 561.923 192.586 561.878C192.556 561.834 192.516 561.809 192.474 561.809C192.433 561.809 192.392 561.834 192.363 561.878V561.957Z" fill="#79A0AB"/>
<path d="M198.27 547.394C198.204 548.361 198.861 548.795 198.808 549.723C198.808 550.078 199.11 550.236 199.268 549.999C202.129 545.559 204.348 553.63 205.057 556.689C205.614 559.185 206.074 561.729 206.435 564.306C206.453 564.384 206.487 564.452 206.531 564.501C206.576 564.551 206.629 564.579 206.684 564.582C209.493 565.095 210.465 557.912 211.331 555.13C211.73 553.505 212.346 552.02 213.143 550.769C215.138 548.184 216.477 549.703 217.895 551.657C218.648 552.952 219.534 554.058 220.52 554.932C222.909 556.511 225.206 552.742 226.703 550.413C227.911 548.539 228.685 545.993 229.866 544.197C232.387 540.369 234.868 543.684 237.598 543.428C238.018 543.428 238.018 542.402 237.598 542.441C235.393 542.698 232.676 539.975 230.588 541.908C229.732 542.997 229.034 544.341 228.541 545.855C227.578 547.947 226.449 549.856 225.18 551.538C223.237 554.123 221.452 555.485 219.299 552.643C218.682 551.699 218.029 550.809 217.343 549.979C216.789 549.27 216.095 548.857 215.368 548.803C214.642 548.75 213.924 549.059 213.327 549.683C211.134 551.933 210.307 557.004 209.27 560.398C208.798 561.918 207.551 564.187 206.645 562.194C206.378 561.174 206.201 560.106 206.12 559.017C205.765 556.879 205.295 554.787 204.715 552.762C203.928 550.216 202.536 547.434 200.396 548.026C200.396 548.026 198.703 548.894 199.32 549.17C198.992 548.692 198.752 548.094 198.624 547.434C198.613 547.371 198.589 547.315 198.554 547.275C198.52 547.235 198.477 547.214 198.434 547.214C198.391 547.214 198.348 547.235 198.314 547.275C198.279 547.315 198.255 547.371 198.244 547.434L198.27 547.394Z" fill="#79A0AB"/>
<path d="M221.137 531.904C225.134 531.746 229.066 533.441 232.4 536.758C232.767 537.113 233.096 536.265 232.741 535.909C229.304 532.537 225.212 531.001 221.124 531.548C220.98 531.548 220.98 531.904 221.124 531.904H221.137Z" fill="#79A0AB"/>
<path d="M285.105 531.054C285.094 532.051 284.905 533.024 284.559 533.875C284.213 534.725 283.721 535.42 283.136 535.889C282.808 536.165 283.136 536.875 283.438 536.638C284.125 536.129 284.699 535.329 285.088 534.337C285.477 533.346 285.666 532.204 285.63 531.054C285.63 530.949 285.603 530.849 285.553 530.775C285.504 530.701 285.437 530.659 285.368 530.659C285.298 530.659 285.231 530.701 285.182 530.775C285.133 530.849 285.105 530.949 285.105 531.054V531.054Z" fill="#79A0AB"/>
<path d="M113.283 411.115C116.908 409.803 120.314 407.377 123.286 403.991C123.601 403.616 123.154 402.965 122.839 403.32C119.995 406.744 116.73 409.292 113.23 410.819C113.112 410.819 113.165 411.174 113.23 411.115H113.283Z" fill="#79A0AB"/>
<path d="M36.8075 458.199C32.7075 459.208 28.5006 458.32 24.7438 455.654C24.6895 455.619 24.6311 455.6 24.5721 455.599C24.513 455.598 24.4544 455.614 24.3995 455.647C24.3446 455.68 24.2946 455.729 24.2524 455.791C24.2101 455.853 24.1763 455.927 24.1531 456.009C24.1298 456.091 24.1175 456.178 24.1167 456.267C24.116 456.356 24.1269 456.444 24.1489 456.527C24.1708 456.609 24.2034 456.684 24.2446 456.748C24.2859 456.811 24.3351 456.862 24.3894 456.897C28.3341 459.208 32.6451 459.716 36.7812 458.357C36.8862 458.357 36.7812 458.101 36.7812 458.12L36.8075 458.199Z" fill="#79A0AB"/>
<path d="M129.141 533.068C137.411 528.786 145.733 524.977 154.082 521.228C154.137 521.206 154.189 521.168 154.234 521.115C154.28 521.063 154.318 520.998 154.347 520.924C154.375 520.85 154.394 520.768 154.401 520.683C154.409 520.598 154.405 520.511 154.391 520.429C154.376 520.346 154.351 520.268 154.316 520.2C154.281 520.131 154.238 520.074 154.189 520.031C154.139 519.988 154.085 519.96 154.028 519.949C153.972 519.937 153.914 519.943 153.859 519.965C145.354 523.179 137.046 527.47 129.023 532.791C128.918 532.791 129.023 533.147 129.115 533.087L129.141 533.068Z" fill="#5C7874"/>
<path d="M12.5735 561.344C8.55613 556.271 3.82545 552.635 -1.26231 550.708C-1.98429 550.452 -2.28622 552.129 -1.56423 552.386C3.46135 554.033 8.21268 557.195 12.4028 561.68C12.5341 561.818 12.7048 561.502 12.5866 561.344H12.5735Z" fill="#79A0AB"/>
<path d="M504.233 542.203L501.843 535.001L494.453 511.419C494.453 511.419 491.998 501.257 491.683 499.856C491.368 498.455 486.774 474.439 486.774 474.439L485.54 464.73L434.174 445.786L410.178 442.096L383.123 488.331L380.038 510.038L367.122 522.529C367.122 522.529 364.352 535.001 361.871 539.164C359.39 543.328 352.682 559.036 352.682 559.036L344.057 570.106L342.023 569.297C341.231 571.76 340.191 574.023 338.938 576.006L340.671 576.105L504.233 577.368V542.203Z" fill="#92BEB9"/>
<path d="M492.877 504.513C492.877 504.513 489.871 491.153 488.624 484.957C487.377 478.761 485.539 464.73 485.539 464.73C485.539 464.73 476.35 458.041 476.101 457.488C475.851 456.936 467.345 449.023 467.345 449.023L463.341 443.813C459.32 441.881 455.16 440.676 450.95 440.221C447.752 439.66 444.531 439.476 441.314 439.669L436.812 440.221L431.43 430.828L424.171 417.647L422.031 413.897C420.338 412.203 418.301 411.469 416.281 411.825C414.076 412.029 411.883 412.464 409.718 413.128L395.278 416.719L391.274 439.294L386.509 466.565L380.76 502.5L391.261 490.285L400.765 481.819L406.147 478.228L409.652 483.319L411.91 486.693C411.91 486.693 414.286 489.515 414.404 483.497C414.522 477.478 414.404 469.585 414.404 469.585C414.404 469.585 414.155 461.494 415.166 457.547C415.67 455.303 416.525 453.273 417.66 451.627C418.313 451.207 419.016 450.99 419.727 450.99C420.438 450.99 421.141 451.207 421.795 451.627C423.25 452.946 424.594 454.523 425.798 456.324C425.798 456.324 428.174 460.468 430.8 459.146C431.524 458.849 432.199 458.329 432.782 457.619C433.365 456.909 433.843 456.024 434.186 455.021C434.186 455.021 436.943 452.752 437.691 456.699C438.203 459.553 438.619 462.445 438.938 465.362C439.058 470.17 439.868 474.882 441.314 479.175C443.572 485.095 444.819 485.391 444.819 485.391C445.645 486.189 446.578 486.704 447.552 486.898C448.525 487.092 449.515 486.962 450.451 486.516C451.439 486.258 452.352 485.553 453.067 484.495C453.783 483.438 454.266 482.077 454.454 480.596C454.454 480.596 462.593 484.365 466.479 488.312C468.771 490.612 470.658 493.713 471.979 497.349L473.292 503.171L473.791 507.887C473.791 507.887 474.171 510.709 475.103 511.084C475.395 511.162 475.694 511.135 475.977 511.005C476.26 510.874 476.519 510.644 476.731 510.334C476.731 510.334 478.608 503.368 478.726 502.796C478.844 502.224 479.855 493.58 481.601 490.758C482.02 489.972 482.555 489.342 483.163 488.917C483.771 488.493 484.436 488.285 485.106 488.312C485.106 488.312 488.991 489.2 492.877 504.513Z" fill="#D9EDF2"/>
<path d="M437.178 441.84C434.408 436.886 431.638 431.973 428.908 426.961C427.726 424.829 426.558 422.698 425.39 420.547C424.227 418.023 422.81 415.786 421.189 413.917C417.75 410.74 412.329 413.542 408.574 414.371L395.828 417.094C395.237 417.212 394.975 415.851 395.579 415.732C400.422 414.667 405.279 413.581 410.136 412.555C413.274 411.904 417.238 410.128 420.31 411.944C423.683 413.917 426.007 420.113 428.186 424.178C431.258 429.94 434.321 435.729 437.375 441.544C437.467 441.741 437.296 442.017 437.191 441.84H437.178Z" fill="#C0D3E6"/>
<path d="M395.566 416.187C392.166 436.689 388.648 457.113 385.327 477.636C383.673 487.792 382.063 497.961 380.496 508.144C380.247 509.762 380.234 510.591 379.538 511.577C378.306 512.958 376.987 514.154 375.6 515.149C372.712 517.734 369.85 520.418 366.923 522.865C366.529 523.2 366.175 522.233 366.569 521.858C369.194 519.352 371.819 517.024 374.445 514.656C375.806 513.59 377.121 512.397 378.383 511.084C379.801 509.367 379.919 506.407 380.326 503.724C381.848 493.988 383.397 484.28 384.973 474.597C388.176 454.982 391.47 435.407 395.159 416.029C395.16 415.984 395.168 415.94 395.182 415.9C395.196 415.86 395.216 415.826 395.24 415.8C395.264 415.773 395.292 415.756 395.322 415.748C395.351 415.74 395.381 415.742 395.41 415.755C395.439 415.767 395.465 415.789 395.487 415.819C395.51 415.849 395.527 415.886 395.538 415.928C395.55 415.969 395.554 416.014 395.552 416.059C395.55 416.104 395.542 416.148 395.527 416.187H395.566Z" fill="#C0D3E6"/>
<path d="M367.725 523.122C364.855 533.5 361.076 543.256 356.489 552.13C352.034 561.182 346.728 569.212 340.736 575.968C340.356 576.382 339.883 575.455 340.237 574.981C345.881 568.034 351.06 560.275 355.701 551.814C360.314 542.871 364.226 533.157 367.358 522.866C367.463 522.53 367.87 522.767 367.765 523.122H367.725Z" fill="#5C7874"/>
<path d="M381.22 501.041C388.735 491.667 397.064 483.873 405.977 477.874C406.292 477.657 406.463 478.387 406.174 478.604C397.073 485.391 388.534 493.763 380.734 503.547C380.942 502.733 381.104 501.895 381.22 501.041Z" fill="#79A0AB"/>
<path d="M404.23 423.922C400.935 422.73 397.841 420.519 395.146 417.429C394.858 417.094 395.251 416.502 395.54 416.837C398.132 419.939 401.102 422.252 404.283 423.645C404.307 423.645 404.33 423.66 404.348 423.686C404.365 423.712 404.375 423.747 404.375 423.784C404.375 423.82 404.365 423.855 404.348 423.881C404.33 423.907 404.307 423.922 404.283 423.922H404.23Z" fill="#79A0AB"/>
<path d="M389.819 534.863C382.284 530.916 374.723 527.502 367.096 524.049C367.011 523.989 366.943 523.887 366.905 523.759C366.866 523.632 366.858 523.488 366.883 523.352C366.909 523.217 366.965 523.1 367.042 523.022C367.12 522.943 367.213 522.909 367.306 522.924C375.055 525.824 382.622 529.726 389.924 534.586C390.029 534.586 389.924 534.902 389.858 534.863H389.819Z" fill="#5C7874"/>
<path opacity="0.59" d="M-8.94222 256.86C-14.193 254.373 -19.9689 255.912 -25.3509 257.945C-24.9674 252.408 -25.5712 246.818 -27.1004 241.748C-28.6295 236.679 -31.0289 232.312 -34.052 229.098C-37.0751 225.883 -40.613 223.936 -44.3023 223.457C-47.9915 222.978 -51.699 223.984 -55.0441 226.372C-49.4651 192.825 -62.1983 158.311 -86.2075 155.43C-91.6015 154.832 -97.0229 155.708 -102.209 158.015V302.069C-99.1642 302.746 -96.0965 303.167 -93.0204 303.332C-76.5488 304.387 -60.2524 297.898 -46.2884 284.723C-47.4436 285.828 -37.6377 290.88 -36.6401 291.196C-29.6159 293.355 -22.3996 293.715 -15.2957 292.261C-12.8636 292.004 -10.4703 291.206 -8.19398 289.893C-4.2559 287.269 -0.396576 282 0.220391 275.389C0.968627 267.022 -3.63893 259.326 -8.94222 256.86Z" fill="white"/>
<path d="M355.635 613.757C311.752 616.164 268.104 620.012 224.956 624.235C113.666 635.148 41.1789 630.786 -66.7641 616.973L-68.7069 616.736L-69.7176 616.618C-71.3585 616.401 -73.0125 616.204 -74.6534 616.026L-79.9042 615.434H-80.1929C-83.6978 615.059 -87.1765 614.724 -90.6945 614.408L-102.22 613.204V682.271H504.245V605.626C454.415 606.1 404.782 609.297 355.635 613.757Z" fill="#79A0AB"/>
<path d="M494.833 651.507C478.989 650.52 464.549 644.403 449.033 640.002C412.435 629.583 376.139 648.586 339.751 652.059C307.629 655.118 276.138 642.647 244.2 645.212C217.395 647.383 191.18 659.657 164.27 659.775C141.626 659.874 119.1 652.277 96.4955 650.047C73.6283 647.777 50.9449 658.769 28.2353 660.88C-5.6191 663.998 -38.9484 649.77 -72.7635 651.171C-82.3593 651.566 -92.2964 649.198 -102.194 647.541V785.516H504.271V651.014C501.135 651.467 497.983 651.631 494.833 651.507V651.507Z" fill="#A0B2D4"/>
<path d="M494.833 654.961C478.989 653.994 464.549 648.034 449.033 643.732C412.435 633.589 376.139 652.119 339.751 655.572C307.629 658.552 276.138 646.396 244.2 648.902C217.395 650.856 191.18 662.854 164.27 662.854C141.626 662.854 119.1 655.553 96.4955 653.362C73.6283 651.152 50.9449 661.887 28.2353 663.92C-5.6191 666.978 -38.9484 653.106 -72.7635 654.467C-82.3593 654.862 -92.2964 652.494 -102.194 650.935V785.437H504.271V654.467C501.134 654.9 497.983 655.065 494.833 654.961V654.961Z" fill="#BBCBE2"/>
<path d="M500.187 687.184C487.762 688.04 475.314 687.823 462.906 686.533L461.698 686.395C435.655 683.296 410.503 692.966 384.761 696.557C351.023 701.24 317.079 701.564 283.303 697.524C263.508 695.136 243.712 691.269 223.891 692.768C200.564 694.564 177.303 701.491 154.147 703.661C135.848 705.398 117.68 698.353 99.4208 697.741C73.5738 696.833 47.8581 708.22 22.0899 704.806C3.9747 702.398 -13.4841 692.749 -31.5468 689.434C-55.0835 685.033 -78.712 691.525 -102.209 692.236V873.782H504.256V686.908L500.187 687.184Z" fill="white"/>
<path d="M500.187 691.565C487.748 692.404 475.289 692.186 462.867 690.914L461.659 690.775C435.615 687.756 410.464 697.208 384.722 700.642C350.98 705.22 317.041 705.536 283.264 701.589C263.468 699.261 243.673 695.472 223.851 696.952C200.525 698.708 177.264 705.457 154.108 707.588C135.809 709.266 117.641 702.398 99.3814 701.767C73.5344 700.879 47.8187 711.989 22.0505 708.654C3.93532 706.325 -13.5235 696.814 -31.5862 693.656C-55.0835 689.473 -78.712 695.807 -102.209 696.518V873.842H504.256V691.288L500.187 691.565Z" fill="url(#paint1_linear_2003_301)"/>
<g style="mix-blend-mode:multiply" opacity="0.3">
<path d="M478.647 727.125L445.961 726.968H429.408C424.157 726.968 418.434 726.099 413.275 726.968C401.815 728.763 390.356 730.914 378.778 732.177C345.569 735.715 312.242 735.959 279.013 732.907C259.559 731.112 240.078 728.191 220.585 729.336C197.652 730.677 174.772 735.887 151.996 737.545C133.999 738.827 116.133 733.598 98.1757 733.045C72.7619 732.355 47.4663 740.939 22.1313 738.354C4.31801 736.558 -12.8652 729.276 -30.6259 726.77C-54.4776 723.416 -78.3293 728.744 -102.194 729V784.51C-100.368 786.191 -98.2148 786.887 -96.0901 786.483C-93.0446 785.891 -90.6949 783.109 -88.5683 780.563L-78.4081 767.993C-76.8655 765.703 -74.8891 764.186 -72.7503 763.652C-70.3419 763.656 -68.0038 764.872 -66.1081 767.105C-58.8888 774.118 -52.7051 783.287 -47.9404 794.041C-44.1073 802.901 -39.5391 814.209 -31.1116 813.932C-26.6353 813.774 -22.8679 810.104 -19.5074 806.631C-10.2004 797.021 -0.827758 787.49 8.47925 777.899C12.4173 773.814 19.9522 763.435 24.4548 761.698C26.3509 761.179 28.3064 761.494 30.0862 762.606C37.8968 766.671 43.4757 774.939 50.4593 780.761C57.4428 786.582 67.8394 789.404 73.9828 782.418C77.7502 778.136 79.9161 770.479 85.1275 770.381C88.8293 770.381 91.4941 774.327 93.5288 778.018C98.9809 787.805 104.433 797.58 109.885 807.341C110.882 809.404 112.162 811.121 113.639 812.373C118.719 816.182 125.073 810.972 129.392 806.059C138.37 795.935 147.218 786.029 155.646 775.433C164.073 764.836 173.328 752.246 185.601 751.654C189.824 751.64 194.028 752.49 198.098 754.18C217.119 761.146 232.005 774.249 249.293 785.003C258.666 790.825 278.527 810.321 288.398 808.328C293.242 807.341 296.957 802.901 300.331 798.698L320.349 773.617C321.802 771.525 323.56 769.97 325.482 769.078C327.63 768.526 329.832 768.668 331.941 769.493C344.188 773.104 363.025 790.371 374.748 789.7C390.881 788.812 383.858 774.643 390.5 764.638C400.818 749.266 460.782 782.398 478.45 787.746C486.909 790.44 495.55 791.605 504.192 791.219V727.066C495.726 727.244 487.206 727.165 478.647 727.125Z" fill="#0687A2"/>
</g>
<path d="M486.312 701.53L453.074 701.333L436.245 701.234C430.995 701.234 425.087 700.09 419.837 701.136C408.18 703.464 396.523 706.306 384.761 707.904C351.019 712.485 317.08 712.795 283.303 708.832C263.508 706.523 243.712 702.734 223.891 704.214C200.564 705.95 177.303 712.719 154.147 714.85C135.848 716.528 117.68 709.66 99.4208 708.93C73.5738 708.042 47.8581 719.152 22.0899 715.817C3.97471 713.469 -13.4841 703.977 -31.5468 700.8C-55.0835 696.656 -78.712 702.991 -102.209 703.701V777.504C-100.913 778.299 -99.4937 778.531 -98.1136 778.174C-95.0157 777.425 -92.6266 773.813 -90.4606 770.419L-80.1428 754.139C-78.5282 751.594 -76.7167 748.89 -74.3932 748.515C-71.8728 748.101 -69.5756 750.489 -67.6328 752.975C-59.9843 762.636 -53.7037 774.506 -49.1632 787.883C-45.2251 799.348 -40.6176 814.01 -32.0982 813.655C-27.5431 813.458 -23.7232 808.702 -20.2839 804.183C-10.8194 791.731 -1.28919 779.398 8.17534 766.966C12.2184 761.658 19.8452 748.219 24.4134 745.97C26.3579 745.309 28.3958 745.729 30.1499 747.154C38.0917 752.422 43.7625 763.138 50.8511 770.656C57.9396 778.175 68.5331 781.865 74.7815 772.807C78.6014 767.282 80.8068 757.336 86.1101 757.237C89.8775 757.139 92.5817 762.408 94.6557 767.104C100.195 779.773 105.739 792.442 111.288 805.11C112.241 807.662 113.543 809.881 115.107 811.623C120.266 816.556 126.725 809.787 131.136 803.433C140.324 790.31 149.264 777.464 157.875 763.769C166.486 750.074 175.767 734.169 188.29 733.222C192.62 733.198 196.92 734.306 200.997 736.498C220.346 745.536 235.469 762.486 253.046 776.418C262.576 783.976 282.765 809.235 292.807 806.65C297.717 805.387 301.51 799.625 304.936 794.159L325.283 761.756C326.672 759.146 328.478 757.109 330.534 755.836C332.715 755.134 334.982 755.325 337.097 756.389C349.542 761.066 368.707 783.424 380.626 782.575C397.022 781.411 389.881 763.059 396.694 750.114C407.195 730.183 468.157 773.182 486.115 780.049C492.066 782.439 498.106 784.297 504.204 785.614V701.57C498.27 701.629 492.311 701.57 486.312 701.53Z" fill="#0687A2"/>
<path style="mix-blend-mode:screen" d="M118.747 781.885C114.218 785.338 108.074 776.932 105.042 772.63C108.107 782.513 111.712 791.998 115.819 800.987C122.041 814.642 130.548 796.053 135.89 789.502C144.987 778.333 154.911 766.216 162.039 752.147C166.686 743.01 177.555 729.572 186.062 730.164C174.694 729.374 164.888 737.623 154.006 737.603H133.475C130.587 746.694 127.708 755.784 124.837 764.875C123.525 768.821 121.95 778.274 119.587 781.016C119.329 781.352 119.047 781.643 118.747 781.885Z" fill="url(#paint2_linear_2003_301)"/>
<path style="mix-blend-mode:screen" d="M-43.0308 709.641L-30.127 770.045L-32.0566 813.656L24.4549 745.97L1.45648 729.059L-43.0308 709.641Z" fill="url(#paint3_linear_2003_301)"/>
<path d="M60.2122 768.939C65.463 770.715 71.3439 769.373 75.0194 763.591C77.1723 760.217 78.3537 755.698 80.0733 751.869C83.6832 743.739 88.6846 735.589 92.9246 728.091C88.4221 735.984 77.2379 739.635 71.4226 745.357C62.9951 753.645 53.78 758.145 43.4229 753.803C47.991 759.526 52.7167 765.367 58.3745 768.169C58.9783 768.465 59.5953 768.722 60.2122 768.939Z" fill="#609FB5"/>
<path d="M239.527 750.233L259.545 771.387C267.697 780.05 274.812 791.633 284.172 797.514C295.211 804.421 302.418 792.324 308.824 779.596C313.542 770.206 318.631 761.25 324.064 752.779L306.999 773.183C305.001 775.826 302.748 778.002 300.318 779.636C287.834 786.878 277.017 777.406 266.253 769.591C257.773 763.494 247.272 758.442 239.527 750.233Z" fill="#609FB5"/>
<path d="M360.557 746.976C359.7 748.361 358.74 749.592 357.695 750.646C351.67 756.724 342.521 750.647 335.747 750.37C333.968 750.179 332.181 750.535 330.496 751.416C329.651 751.891 328.901 752.685 328.32 753.722C327.738 754.759 327.344 756.004 327.175 757.336C331.205 752.857 336.85 754.85 341.615 757.198C354.479 763.493 366.294 774.662 379.421 778.609C380.831 779.153 382.299 779.267 383.739 778.944C384.756 778.542 385.71 777.842 386.546 776.883C387.381 775.925 388.083 774.727 388.609 773.36C389.648 770.578 390.43 767.598 390.933 764.499C378.83 768.051 379.119 757.593 375.364 744.075C374.183 739.892 367.921 724.914 368.801 720.514C367.186 728.999 364.981 739.813 360.557 746.976Z" fill="#609FB5"/>
<path style="mix-blend-mode:screen" d="M274.405 652.631H273.578C259.939 652.395 246.248 651.289 232.635 653.302C222.803 654.743 202.548 657.071 198.23 673.746C197.976 674.531 197.911 675.423 198.046 676.272C198.287 677.061 198.686 677.717 199.188 678.147C209.046 688.447 222.659 688.763 234.342 688.349C245.749 687.954 257.406 686.198 268.288 680.85C275.823 677.14 282.019 669.247 289.462 665.221C297.338 660.979 304.348 666.405 312.513 666.188C321.486 665.818 330.418 664.226 339.2 661.432C334.868 661.432 330.602 663.051 326.178 662.755C321.754 662.459 317.777 660.919 313.55 660.446C305.445 659.309 297.389 657.478 289.423 654.96C287.335 654.368 285.248 653.776 283.135 653.401C280.236 652.919 277.322 652.662 274.405 652.631V652.631Z" fill="url(#paint4_linear_2003_301)"/>
<path d="M89.0391 661.629L93.1609 662.123H93.2528L89.0391 661.629Z" fill="#E7EEFA"/>
<path style="mix-blend-mode:screen" d="M172.749 678.048C171.437 672.464 166.685 670.707 162.747 671.161C141.008 673.628 115.739 661.058 93.5413 657.348H93.2788C89.3911 656.962 85.4874 657.509 81.7139 658.966C54.7905 667.471 27.539 671.437 -0.0407521 668.833C-31.0335 665.774 -62.2625 656.795 -93.2421 664.235C-96.4315 665.002 -99.475 666.784 -102.168 669.464V687.639C-99.5407 689.226 -96.713 689.927 -93.8853 689.691C-70.1256 689.454 -46.3264 678.699 -22.8817 684.501C-12.9314 686.948 -3.375 692.394 6.57523 694.841C19.9122 698.176 33.538 696.242 46.9931 694.289C80.8738 689.375 111.696 688.112 144.684 699.005C154.03 702.083 165.333 700.86 171.03 689.296C172.618 686.08 173.655 681.817 172.749 678.048Z" fill="url(#paint5_linear_2003_301)"/>
<path style="mix-blend-mode:screen" d="M382.15 648.922C380.719 649.159 379.315 649.494 377.976 649.869C361.659 654.487 345.552 660.091 328.999 661.354C326.624 661.444 324.275 662.11 322.042 663.327C306.749 672.326 323.184 691.625 332.018 693.263C339.553 694.664 344.515 689.888 351.381 687.737C359.349 685.231 367.96 686.692 376.085 685.764C381.927 685.054 388.057 683.791 392.717 678.463C397.377 673.135 399.832 662.459 396.472 655.256C393.426 648.725 387.663 648.014 382.15 648.922Z" fill="url(#paint6_linear_2003_301)"/>
<path style="mix-blend-mode:screen" d="M504.233 660.761C498.436 660.664 492.655 659.806 486.958 658.196L486.656 658.097C474.106 654.604 461.347 649.316 448.955 646.79C440.541 645.093 432.258 646.237 423.909 645.33C414.18 644.22 404.401 644.624 394.728 646.533C391.27 647.05 387.86 648.122 384.554 649.73C390.343 649.73 411.478 642.981 414.667 651.704C416.65 657.11 413.355 660.445 416.676 665.872C419.406 670.391 424.198 671.614 427.978 672.542C452.394 678.6 479.777 680.593 504.233 670.056V660.761Z" fill="url(#paint7_linear_2003_301)"/>
<g style="mix-blend-mode:multiply" opacity="0.3">
<path d="M180.707 708.062L180.798 708.634C182.549 715.528 184.255 722.448 185.918 729.394C185.397 721.826 185.952 714.178 187.546 706.957L180.707 708.062Z" fill="#0687A2"/>
</g>
<g style="mix-blend-mode:multiply" opacity="0.3">
<path d="M336.102 708.537C336.394 710.704 336.491 712.921 336.391 715.128C336.115 721.048 334.395 726.612 332.715 731.98C331.035 737.347 329.368 742.675 327.688 748.003L337.651 731.329C338.763 729.563 339.781 727.669 340.696 725.665C341.852 722.984 342.645 719.986 343.028 716.844C343.411 713.701 343.377 710.476 342.928 707.353C340.624 706.773 338.258 707.184 336.102 708.537V708.537Z" fill="#0687A2"/>
</g>
<path d="M334.472 709.759C334.055 710.116 333.656 710.519 333.277 710.963L334.472 709.759Z" fill="#00809C"/>
<path d="M334.472 709.76C334.999 709.293 335.547 708.884 336.113 708.536C336.107 708.405 336.107 708.273 336.113 708.142L334.472 709.76Z" fill="#00809C"/>
<g style="mix-blend-mode:multiply" opacity="0.3">
<path d="M403.482 714.279C405.7 719.922 405.543 727.125 404.085 733.302C402.451 739.373 400.24 745.056 397.522 750.174C400.747 748.903 404.073 748.305 407.407 748.398C406.842 744.924 408.575 741.668 409.389 738.314C411.397 729.986 407.709 721.185 404.217 714.062L403.482 714.279Z" fill="#0687A2"/>
</g>
<g style="mix-blend-mode:multiply" opacity="0.3">
<path d="M31.3333 712.049C28.6161 711.753 25.6756 711.556 23.3784 713.747L24.6911 714.102C26.7815 720.467 28.0721 727.357 28.4979 734.427C29.6618 727.494 30.8914 720.587 32.1866 713.707C32.2851 713.347 32.2851 712.943 32.1866 712.582C32.0291 712.188 31.6615 712.188 31.3333 712.049Z" fill="#0687A2"/>
</g>
<path d="M474.445 821.114C457.524 816.062 441.798 826.837 424.825 823.522C414.625 821.548 404.806 816.319 394.633 814.247C366.016 808.327 337.99 823.285 310.437 831.75C281.478 840.652 251.456 837.59 223.562 822.89C207.692 814.425 195.917 810.32 179.285 813.181C133.945 825.574 90.2976 828.356 44.0775 832.915C0.154762 837.217 -46.4984 839.348 -89.5155 824.824C-93.7161 823.403 -97.943 821.982 -102.209 821.154V874H504.256V828.179C494.568 826.639 485.025 824.272 474.445 821.114Z" fill="#04637C"/>
<path d="M25.7798 91.3162C26.0398 91.2726 26.2799 91.0865 26.4543 90.7934C26.6287 90.5003 26.7251 90.1209 26.7251 89.7277C26.7251 89.3345 26.6287 88.9551 26.4543 88.662C26.2799 88.3689 26.0398 88.1828 25.7798 88.1392C25.5198 88.1828 25.2797 88.3689 25.1053 88.662C24.9309 88.9551 24.8345 89.3345 24.8345 89.7277C24.8345 90.1209 24.9309 90.5003 25.1053 90.7934C25.2797 91.0865 25.5198 91.2726 25.7798 91.3162V91.3162Z" fill="white"/>
<path d="M17.8114 151.542C18.084 151.423 18.3235 151.173 18.494 150.832C18.6644 150.49 18.7565 150.075 18.7565 149.648C18.7565 149.221 18.6644 148.805 18.494 148.464C18.3235 148.122 18.084 147.873 17.8114 147.753C17.5387 147.873 17.2992 148.122 17.1288 148.464C16.9583 148.805 16.8662 149.221 16.8662 149.648C16.8662 150.075 16.9583 150.49 17.1288 150.832C17.2992 151.173 17.5387 151.423 17.8114 151.542V151.542Z" fill="white"/>
<path d="M15.8043 224.971C15.8043 224.399 15.8043 223.827 15.8962 223.254C16.0537 220.353 12.7195 220.334 12.877 223.254C12.877 223.827 12.877 224.399 12.9689 224.971C12.9689 225.536 13.1183 226.078 13.3841 226.478C13.65 226.878 14.0106 227.102 14.3866 227.102C14.7626 227.102 15.1232 226.878 15.3891 226.478C15.6549 226.078 15.8043 225.536 15.8043 224.971V224.971Z" fill="white"/>
<path d="M30.3341 202.83C30.6344 202.783 30.9124 202.571 31.1145 202.234C31.3167 201.897 31.4285 201.459 31.4285 201.005C31.4285 200.551 31.3167 200.113 31.1145 199.776C30.9124 199.439 30.6344 199.227 30.3341 199.18C30.0339 199.227 29.7558 199.439 29.5537 199.776C29.3516 200.113 29.2397 200.551 29.2397 201.005C29.2397 201.459 29.3516 201.897 29.5537 202.234C29.7558 202.571 30.0339 202.783 30.3341 202.83V202.83Z" fill="white"/>
<path d="M8.70086 122.16C8.98982 122.16 9.26695 121.987 9.47128 121.68C9.67561 121.373 9.7904 120.956 9.7904 120.522C9.7904 120.087 9.67561 119.671 9.47128 119.364C9.26695 119.056 8.98982 118.884 8.70086 118.884C8.4119 118.884 8.13478 119.056 7.93045 119.364C7.72612 119.671 7.61133 120.087 7.61133 120.522C7.61133 120.956 7.72612 121.373 7.93045 121.68C8.13478 121.987 8.4119 122.16 8.70086 122.16V122.16Z" fill="white"/>
<path d="M150.038 55.4805V53.7834C150.038 53.26 149.9 52.7581 149.654 52.388C149.408 52.018 149.074 51.8101 148.726 51.8101C148.378 51.8101 148.044 52.018 147.798 52.388C147.551 52.7581 147.413 53.26 147.413 53.7834V55.4805C147.493 55.8904 147.658 56.2504 147.886 56.5066C148.113 56.7628 148.389 56.9013 148.673 56.9013C148.957 56.9013 149.234 56.7628 149.461 56.5066C149.688 56.2504 149.854 55.8904 149.933 55.4805H150.038Z" fill="white"/>
<path d="M105.501 65.822L106.643 66.0193C108.323 66.2956 108.323 61.8161 106.643 62.0726L105.501 62.2502C105.187 62.2502 104.887 62.4373 104.665 62.7704C104.444 63.1035 104.319 63.5552 104.319 64.0262C104.319 64.4973 104.444 64.949 104.665 65.282C104.887 65.6151 105.187 65.8022 105.501 65.8022V65.822Z" fill="white"/>
<path d="M103.23 30.8337C103.373 30.7724 103.498 30.643 103.587 30.465C103.677 30.2869 103.725 30.07 103.725 29.847C103.725 29.624 103.677 29.4071 103.587 29.2291C103.498 29.051 103.373 28.9216 103.23 28.8604C103.087 28.9216 102.962 29.051 102.873 29.2291C102.783 29.4071 102.735 29.624 102.735 29.847C102.735 30.07 102.783 30.2869 102.873 30.465C102.962 30.643 103.087 30.7724 103.23 30.8337V30.8337Z" fill="white"/>
<path d="M53.1109 29.789C53.3876 29.7439 53.6435 29.5467 53.8295 29.2353C54.0154 28.9239 54.1182 28.5202 54.1182 28.1018C54.1182 27.6833 54.0154 27.2796 53.8295 26.9682C53.6435 26.6568 53.3876 26.4596 53.1109 26.4146C52.8341 26.4596 52.5782 26.6568 52.3923 26.9682C52.2064 27.2796 52.1035 27.6833 52.1035 28.1018C52.1035 28.5202 52.2064 28.9239 52.3923 29.2353C52.5782 29.5467 52.8341 29.7439 53.1109 29.789V29.789Z" fill="white"/>
<path d="M59.5578 94.2762C59.9385 93.704 60.3061 93.112 60.6736 92.5397C60.8321 92.24 60.9117 91.8632 60.8972 91.481C60.8827 91.0988 60.7752 90.738 60.5951 90.4673C60.415 90.1967 60.175 90.035 59.9208 90.0133C59.6666 89.9915 59.4159 90.1111 59.2165 90.3493L58.0614 92.0266C57.0769 93.4474 58.6127 95.7562 59.5578 94.2762Z" fill="white"/>
<path d="M80.4527 14.3764C80.7294 14.3313 80.9853 14.1341 81.1712 13.8227C81.3572 13.5113 81.46 13.1076 81.46 12.6892C81.46 12.2707 81.3572 11.867 81.1712 11.5556C80.9853 11.2442 80.7294 11.047 80.4527 11.002C80.1759 11.047 79.92 11.2442 79.7341 11.5556C79.5482 11.867 79.4453 12.2707 79.4453 12.6892C79.4453 13.1076 79.5482 13.5113 79.7341 13.8227C79.92 14.1341 80.1759 14.3313 80.4527 14.3764V14.3764Z" fill="white"/>
<path d="M83.4614 61.7169L84.5641 59.9606C84.738 59.6801 84.8327 59.309 84.8282 58.9256C84.8237 58.5421 84.7204 58.1763 84.54 57.9052C84.3596 57.634 84.1163 57.4787 83.8612 57.4719C83.6061 57.4651 83.3593 57.6075 83.1727 57.8689L82.0044 59.5265C81.033 60.9078 82.5426 63.1772 83.4614 61.7169V61.7169Z" fill="white"/>
<path d="M179.525 14.0997C179.755 14.0588 179.967 13.8925 180.121 13.6325C180.274 13.3724 180.359 13.0366 180.359 12.6888C180.359 12.3409 180.274 12.0051 180.121 11.7451C179.967 11.485 179.755 11.3188 179.525 11.2778C179.296 11.3188 179.084 11.485 178.93 11.7451C178.776 12.0051 178.691 12.3409 178.691 12.6888C178.691 13.0366 178.776 13.3724 178.93 13.6325C179.084 13.8925 179.296 14.0588 179.525 14.0997V14.0997Z" fill="white"/>
<path d="M140.8 9.14728C141.06 9.10366 141.3 8.91752 141.474 8.62445C141.649 8.33139 141.745 7.95197 141.745 7.55875C141.745 7.16553 141.649 6.78611 141.474 6.49305C141.3 6.19998 141.06 6.01384 140.8 5.97021C140.54 6.01384 140.3 6.19998 140.125 6.49305C139.951 6.78611 139.854 7.16553 139.854 7.55875C139.854 7.95197 139.951 8.33139 140.125 8.62445C140.3 8.91752 140.54 9.10366 140.8 9.14728V9.14728Z" fill="white"/>
<path d="M131.691 45.4965C132.039 45.4965 132.373 45.2886 132.619 44.9185C132.865 44.5484 133.003 44.0465 133.003 43.5231C133.003 42.9998 132.865 42.4979 132.619 42.1278C132.373 41.7577 132.039 41.5498 131.691 41.5498C131.342 41.5498 131.009 41.7577 130.762 42.1278C130.516 42.4979 130.378 42.9998 130.378 43.5231C130.378 44.0465 130.516 44.5484 130.762 44.9185C131.009 45.2886 131.342 45.4965 131.691 45.4965Z" fill="white"/>
<path d="M398.18 161.745C398.481 161.698 398.759 161.485 398.961 161.148C399.163 160.811 399.275 160.373 399.275 159.92C399.275 159.466 399.163 159.028 398.961 158.691C398.759 158.354 398.481 158.141 398.18 158.094C397.88 158.141 397.602 158.354 397.4 158.691C397.198 159.028 397.086 159.466 397.086 159.92C397.086 160.373 397.198 160.811 397.4 161.148C397.602 161.485 397.88 161.698 398.18 161.745V161.745Z" fill="white"/>
<path d="M329.84 72.9259C330.198 72.9259 330.542 72.7118 330.796 72.3306C331.049 71.9494 331.192 71.4324 331.192 70.8934C331.192 70.3543 331.049 69.8373 330.796 69.4562C330.542 69.075 330.198 68.8608 329.84 68.8608C329.481 68.8608 329.137 69.075 328.884 69.4562C328.63 69.8373 328.488 70.3543 328.488 70.8934C328.488 71.4324 328.63 71.9494 328.884 72.3306C329.137 72.7118 329.481 72.9259 329.84 72.9259Z" fill="white"/>
<path d="M245.524 29.789C245.801 29.7439 246.057 29.5467 246.243 29.2353C246.429 28.9239 246.531 28.5202 246.531 28.1018C246.531 27.6833 246.429 27.2796 246.243 26.9682C246.057 26.6568 245.801 26.4596 245.524 26.4146C245.247 26.4596 244.991 26.6568 244.805 26.9682C244.619 27.2796 244.517 27.6833 244.517 28.1018C244.517 28.5202 244.619 28.9239 244.805 29.2353C244.991 29.5467 245.247 29.7439 245.524 29.789V29.789Z" fill="white"/>
<path d="M207.458 62.3875C207.458 64.8739 210.215 64.5779 209.873 62.052C209.827 61.7986 209.72 61.5793 209.574 61.4349C209.428 61.2904 209.252 61.2308 209.078 61.267C208.905 61.3032 208.746 61.4327 208.632 61.6316C208.517 61.8304 208.455 62.085 208.456 62.348C208.456 61.5982 209.06 61.7758 209.033 62.348C209.099 60.8483 207.471 60.8286 207.458 62.348V62.3875Z" fill="white"/>
<path d="M214.821 21.3035C215.131 21.3035 215.428 21.1185 215.647 20.7892C215.866 20.4598 215.989 20.0131 215.989 19.5473C215.989 19.0815 215.866 18.6348 215.647 18.3054C215.428 17.976 215.131 17.791 214.821 17.791C214.511 17.791 214.214 17.976 213.995 18.3054C213.776 18.6348 213.653 19.0815 213.653 19.5473C213.653 20.0131 213.776 20.4598 213.995 20.7892C214.214 21.1185 214.511 21.3035 214.821 21.3035V21.3035Z" fill="white"/>
<path d="M238.74 63.6499C238.953 63.6106 239.149 63.4554 239.292 63.2137C239.434 62.972 239.512 62.6604 239.512 62.3377C239.512 62.0149 239.434 61.7033 239.292 61.4616C239.149 61.2199 238.953 61.0647 238.74 61.0254C238.527 61.0647 238.331 61.2199 238.189 61.4616C238.046 61.7033 237.968 62.0149 237.968 62.3377C237.968 62.6604 238.046 62.972 238.189 63.2137C238.331 63.4554 238.527 63.6106 238.74 63.6499Z" fill="white"/>
<path d="M280.878 15.6009C281.081 15.5625 281.268 15.414 281.404 15.1833C281.539 14.9525 281.614 14.6555 281.614 14.3478C281.614 14.0401 281.539 13.743 281.404 13.5123C281.268 13.2816 281.081 13.1331 280.878 13.0947C280.675 13.1331 280.489 13.2816 280.353 13.5123C280.218 13.743 280.143 14.0401 280.143 14.3478C280.143 14.6555 280.218 14.9525 280.353 15.1833C280.489 15.414 280.675 15.5625 280.878 15.6009Z" fill="white"/>
<path d="M276.321 57.9473C276.729 57.8922 277.109 57.6096 277.385 57.1549C277.662 56.7003 277.815 56.1065 277.815 55.4905C277.815 54.8744 277.662 54.2807 277.385 53.826C277.109 53.3714 276.729 53.0887 276.321 53.0337C275.913 53.0887 275.533 53.3714 275.257 53.826C274.98 54.2807 274.827 54.8744 274.827 55.4905C274.827 56.1065 274.98 56.7003 275.257 57.1549C275.533 57.6096 275.913 57.8922 276.321 57.9473V57.9473Z" fill="white"/>
<path d="M327.569 19.3096C327.831 19.3096 328.081 19.1537 328.266 18.8761C328.45 18.5986 328.554 18.2221 328.554 17.8296C328.554 17.4371 328.45 17.0606 328.266 16.7831C328.081 16.5055 327.831 16.3496 327.569 16.3496C327.308 16.3496 327.058 16.5055 326.873 16.7831C326.689 17.0606 326.585 17.4371 326.585 17.8296C326.585 18.2221 326.689 18.5986 326.873 18.8761C327.058 19.1537 327.308 19.3096 327.569 19.3096Z" fill="white"/>
<path d="M357.17 61.4404C357.616 61.4404 358.044 61.1743 358.359 60.7006C358.674 60.2269 358.851 59.5844 358.851 58.9145C358.851 58.2446 358.674 57.6022 358.359 57.1285C358.044 56.6548 357.616 56.3887 357.17 56.3887C356.725 56.3887 356.297 56.6548 355.982 57.1285C355.667 57.6022 355.49 58.2446 355.49 58.9145C355.49 59.5844 355.667 60.2269 355.982 60.7006C356.297 61.1743 356.725 61.4404 357.17 61.4404Z" fill="white"/>
<path d="M368.12 4.84477L369.209 5.14077C369.487 5.25444 369.779 5.27013 370.063 5.18662C370.346 5.10311 370.612 4.92264 370.841 4.65924C371.07 4.39584 371.256 4.05658 371.384 3.66781C371.512 3.27904 371.578 2.85122 371.578 2.41757C371.578 1.98391 371.512 1.5561 371.384 1.16733C371.256 0.778558 371.07 0.439301 370.841 0.175898C370.612 -0.0875056 370.346 -0.267968 370.063 -0.351478C369.779 -0.434989 369.487 -0.4193 369.209 -0.30563L368.12 -0.00963007C367.769 0.142031 367.461 0.460821 367.242 0.898649C367.023 1.33648 366.904 1.86959 366.904 2.41757C366.904 2.96555 367.023 3.49866 367.242 3.93649C367.461 4.37432 367.769 4.69311 368.12 4.84477V4.84477Z" fill="white"/>
<path d="M382.23 120.858C382.588 120.858 382.932 120.644 383.186 120.263C383.439 119.882 383.582 119.365 383.582 118.825C383.582 118.286 383.439 117.769 383.186 117.388C382.932 117.007 382.588 116.793 382.23 116.793C381.871 116.793 381.527 117.007 381.273 117.388C381.02 117.769 380.877 118.286 380.877 118.825C380.877 119.365 381.02 119.882 381.273 120.263C381.527 120.644 381.871 120.858 382.23 120.858V120.858Z" fill="white"/>
<path d="M402.433 223.194C401.934 223.352 401.435 223.431 400.936 223.549H401.894C401.484 223.362 401.05 223.315 400.626 223.411C400.201 223.506 399.796 223.742 399.44 224.102C399.006 224.496 398.681 225.111 398.522 225.834C398.363 226.558 398.381 227.343 398.573 228.048C398.767 228.761 399.128 229.341 399.588 229.68C400.048 230.018 400.574 230.091 401.067 229.883C401.554 229.672 401.999 229.285 402.363 228.755C402.727 228.225 402.999 227.569 403.155 226.845L402.695 228.048C403.05 227.535 403.365 227.002 403.732 226.509C404.795 225.108 403.64 222.76 402.42 223.154L402.433 223.194Z" fill="white"/>
<path d="M359.441 195.844C359.83 195.286 360.185 194.679 360.504 194.029C360.743 193.598 360.866 193.05 360.849 192.491C360.833 191.931 360.678 191.401 360.416 191.004C360.153 190.607 359.801 190.371 359.429 190.343C359.057 190.315 358.692 190.496 358.404 190.852C357.969 191.333 357.564 191.875 357.196 192.47C356.917 192.923 356.765 193.521 356.773 194.139C356.78 194.756 356.947 195.345 357.238 195.782C357.528 196.219 357.92 196.47 358.331 196.481C358.742 196.493 359.14 196.264 359.441 195.844V195.844Z" fill="white"/>
<path d="M398.585 56.0932L397.272 57.6522C396.752 58.4394 396.461 59.5033 396.461 60.6122C396.461 61.721 396.752 62.7849 397.272 63.5722C397.8 64.339 398.506 64.7676 399.241 64.7676C399.975 64.7676 400.681 64.339 401.21 63.5722L402.247 61.5988C402.743 60.853 403.022 59.8415 403.022 58.7868C403.022 57.7321 402.743 56.7206 402.247 55.9748C401.751 55.229 401.078 54.8101 400.376 54.8101C399.675 54.8101 399.002 55.229 398.506 55.9748L398.585 56.0932Z" fill="white"/>
<path d="M143.136 2.65565C143.484 2.65565 143.818 2.44775 144.064 2.07768C144.31 1.7076 144.449 1.20568 144.449 0.682318C144.449 0.158957 144.31 -0.342968 144.064 -0.71304C143.818 -1.08311 143.484 -1.29102 143.136 -1.29102C142.788 -1.29102 142.454 -1.08311 142.208 -0.71304C141.962 -0.342968 141.823 0.158957 141.823 0.682318C141.823 1.20568 141.962 1.7076 142.208 2.07768C142.454 2.44775 142.788 2.65565 143.136 2.65565Z" fill="white"/>
<path d="M165.858 23.6516C166.256 23.5973 166.626 23.3212 166.895 22.8776C167.165 22.4339 167.314 21.8549 167.314 21.254C167.314 20.6532 167.165 20.0741 166.895 19.6305C166.626 19.1869 166.256 18.9108 165.858 18.8564C165.459 18.9108 165.089 19.1869 164.82 19.6305C164.55 20.0741 164.401 20.6532 164.401 21.254C164.401 21.8549 164.55 22.4339 164.82 22.8776C165.089 23.3212 165.459 23.5973 165.858 23.6516V23.6516Z" fill="white"/>
<path d="M297.494 29.8076V28.742C297.494 28.0145 297.302 27.3168 296.96 26.8024C296.618 26.288 296.154 25.999 295.67 25.999C295.186 25.999 294.722 26.288 294.38 26.8024C294.037 27.3168 293.845 28.0145 293.845 28.742V29.8076C293.884 30.4974 294.094 31.1402 294.433 31.6086C294.772 32.077 295.216 32.3369 295.676 32.3369C296.137 32.3369 296.581 32.077 296.92 31.6086C297.259 31.1402 297.469 30.4974 297.508 29.8076V28.742C297.508 28.0145 297.315 27.3168 296.973 26.8024C296.631 26.288 296.167 25.999 295.683 25.999C295.199 25.999 294.735 26.288 294.393 26.8024C294.051 27.3168 293.858 28.0145 293.858 28.742C293.858 29.0972 293.858 29.4524 293.858 29.8076C293.858 30.5298 294.049 31.2225 294.389 31.7332C294.729 32.2439 295.189 32.5308 295.67 32.5308C296.15 32.5308 296.611 32.2439 296.951 31.7332C297.291 31.2225 297.481 30.5298 297.481 29.8076H297.494Z" fill="white"/>
<path d="M271.781 12.5008C272.049 12.5008 272.306 12.3408 272.495 12.0558C272.685 11.7709 272.792 11.3844 272.792 10.9814C272.792 10.5784 272.685 10.1919 272.495 9.90696C272.306 9.622 272.049 9.46191 271.781 9.46191C271.513 9.46191 271.256 9.622 271.066 9.90696C270.877 10.1919 270.77 10.5784 270.77 10.9814C270.77 11.3844 270.877 11.7709 271.066 12.0558C271.256 12.3408 271.513 12.5008 271.781 12.5008Z" fill="white"/>
<path d="M312.763 61.7171C313.258 61.7171 313.732 61.4218 314.082 60.8963C314.431 60.3708 314.627 59.6581 314.627 58.9149C314.627 58.1718 314.431 57.459 314.082 56.9335C313.732 56.408 313.258 56.1128 312.763 56.1128C312.269 56.1128 311.795 56.408 311.445 56.9335C311.096 57.459 310.899 58.1718 310.899 58.9149C310.899 59.6581 311.096 60.3708 311.445 60.8963C311.795 61.4218 312.269 61.7171 312.763 61.7171V61.7171Z" fill="white"/>
<path d="M359.732 446.398L360.927 439.571C361.439 436.69 358.419 435.446 357.96 438.347C357.606 440.636 357.238 442.925 356.884 445.214C356.816 445.763 356.888 446.329 357.085 446.802C357.282 447.275 357.589 447.62 357.947 447.768C358.305 447.917 358.686 447.859 359.017 447.605C359.347 447.352 359.602 446.921 359.732 446.398V446.398Z" fill="white"/>
<defs>
<linearGradient id="paint0_linear_2003_301" x1="201.01" y1="466.23" x2="201.01" y2="-0.147177" gradientUnits="userSpaceOnUse">
<stop stop-color="#F6F9EC"/>
<stop offset="0.41" stop-color="#2F84AA"/>
<stop offset="1" stop-color="#00245A"/>
</linearGradient>
<linearGradient id="paint1_linear_2003_301" x1="201.01" y1="826.205" x2="201.01" y2="643.731" gradientUnits="userSpaceOnUse">
<stop offset="0.07" stop-color="#057490"/>
<stop offset="0.99" stop-color="#0B566A"/>
</linearGradient>
<linearGradient id="paint2_linear_2003_301" x1="142.047" y1="750.292" x2="196.992" y2="792.507" gradientUnits="userSpaceOnUse">
<stop/>
<stop offset="0.78" stop-color="white"/>
</linearGradient>
<linearGradient id="paint3_linear_2003_301" x1="-19.3235" y1="748.299" x2="48.2185" y2="808.96" gradientUnits="userSpaceOnUse">
<stop/>
<stop offset="1" stop-color="white"/>
</linearGradient>
<linearGradient id="paint4_linear_2003_301" x1="197.928" y1="670.293" x2="339.161" y2="670.293" gradientUnits="userSpaceOnUse">
<stop/>
<stop offset="0.17" stop-color="#252525"/>
<stop offset="0.54" stop-color="#828282"/>
<stop offset="1" stop-color="white"/>
</linearGradient>
<linearGradient id="paint5_linear_2003_301" x1="-106.198" y1="678.739" x2="173.078" y2="678.739" gradientUnits="userSpaceOnUse">
<stop offset="0.08"/>
<stop offset="0.47" stop-color="white"/>
<stop offset="1"/>
</linearGradient>
<linearGradient id="paint6_linear_2003_301" x1="26020" y1="16241.1" x2="31173.7" y2="16241.1" gradientUnits="userSpaceOnUse">
<stop/>
<stop offset="0.17" stop-color="#252525"/>
<stop offset="0.54" stop-color="#828282"/>
<stop offset="1" stop-color="white"/>
</linearGradient>
<linearGradient id="paint7_linear_2003_301" x1="53591.2" y1="12012.1" x2="44381.6" y2="7587.53" gradientUnits="userSpaceOnUse">
<stop/>
<stop offset="0.17" stop-color="#252525"/>
<stop offset="0.54" stop-color="#828282"/>
<stop offset="1" stop-color="white"/>
</linearGradient>
</defs>
</svg>
