<svg width="19" height="27" viewBox="0 0 19 27" fill="none" xmlns="http://www.w3.org/2000/svg">
<path d="M18.0803 6.99471C17.9197 6.80961 17.7082 6.6759 17.4721 6.61028C17.2361 6.54466 16.9859 6.55004 16.7529 6.62573L9.66279 8.93984L12.1291 1.92131C12.2389 1.62647 12.2328 1.30096 12.1121 1.01041C11.9914 0.71986 11.765 0.485882 11.4787 0.35565C11.1923 0.225418 10.8672 0.208616 10.5689 0.308632C10.2706 0.408649 10.0213 0.618045 9.87132 0.894603L0.816222 16.8086C0.68982 17.0319 0.635322 17.2886 0.660157 17.544C0.684991 17.7993 0.78795 18.0408 0.955001 18.2355C1.12205 18.4302 1.34507 18.5686 1.59365 18.6319C1.84224 18.6952 2.1043 18.6804 2.34412 18.5893L10.132 15.6295L7.10427 25.2549C7.01343 25.5535 7.03782 25.8753 7.17265 26.1568C7.30748 26.4383 7.54293 26.659 7.83252 26.7754C8.12211 26.8917 8.4448 26.8952 8.73687 26.7853C9.02894 26.6753 9.26918 26.4598 9.41015 26.1814L18.2327 8.37836C18.3476 8.1587 18.3946 7.90975 18.3674 7.6633C18.3403 7.41684 18.2403 7.18407 18.0803 6.99471Z" fill="#003C80"/>
<path d="M10.974 1.30295L1.92289 17.221C1.87599 17.2933 1.85367 17.3789 1.85923 17.465C1.8648 17.551 1.89794 17.633 1.95376 17.6987C2.00958 17.7644 2.0851 17.8104 2.16911 17.8298C2.25312 17.8493 2.34116 17.8411 2.42016 17.8065L11.0381 14.5339C11.1105 14.4967 11.1924 14.4824 11.273 14.4928C11.3537 14.5032 11.4292 14.538 11.4897 14.5923C11.5502 14.6467 11.5927 14.7182 11.6116 14.7973C11.6305 14.8764 11.6249 14.9594 11.5956 15.0352L8.29915 25.4908C8.25874 25.5913 8.2599 25.7038 8.3024 25.8034C8.34489 25.9031 8.42522 25.9818 8.52573 26.0222C8.62624 26.0626 8.73869 26.0615 8.83833 26.019C8.93798 25.9765 9.01667 25.8961 9.05709 25.7956L17.8796 7.9886C17.9195 7.91671 17.9364 7.83428 17.9279 7.75249C17.9194 7.6707 17.8859 7.59349 17.8321 7.53134C17.7783 7.46918 17.7066 7.42508 17.6269 7.405C17.5472 7.38493 17.4632 7.38985 17.3863 7.4191L9.47415 10.0019C9.40126 10.0294 9.32193 10.035 9.24588 10.0182C9.16983 10.0013 9.10033 9.96264 9.04589 9.90691C8.99145 9.85119 8.95441 9.78081 8.93931 9.70438C8.9242 9.62795 8.93168 9.54878 8.96084 9.47653L11.7159 1.63984C11.7605 1.54145 11.7643 1.42934 11.7263 1.32818C11.6883 1.22702 11.6117 1.14509 11.5134 1.10041C11.415 1.05574 11.3029 1.05198 11.2017 1.08997C11.1006 1.12795 11.0186 1.20456 10.974 1.30295Z" fill="#91D9F8"/>
<path d="M2.42033 17.8066L11.0383 14.5339C11.0897 14.5131 11.1449 14.5032 11.2003 14.5048C11.2558 14.5064 11.3103 14.5195 11.3604 14.5432C11.4105 14.567 11.4552 14.6009 11.4916 14.6428C11.5279 14.6847 11.5552 14.7336 11.5717 14.7866C12.867 13.3428 16.1594 9.61695 15.7664 9.41642C15.2811 9.17177 6.14183 14.6302 5.55232 13.5594C4.96282 12.4885 7.39302 8.2373 7.39302 8.2373C7.39302 8.2373 7.0722 8.54612 6.59097 8.98327L1.90702 17.221C1.85576 17.2946 1.83061 17.3831 1.83558 17.4726C1.84055 17.5621 1.87535 17.6474 1.93444 17.7148C1.99352 17.7822 2.07349 17.8278 2.16156 17.8445C2.24963 17.8611 2.34073 17.8478 2.42033 17.8066Z" fill="#37B3E7"/>
<path d="M14.1901 11.7717C13.2322 12.7935 12.1765 13.719 11.0381 14.535C11.1104 14.4978 11.1923 14.4835 11.273 14.4939C11.3536 14.5044 11.4292 14.5391 11.4896 14.5935C11.5501 14.6478 11.5926 14.7193 11.6115 14.7984C11.6304 14.8775 11.6248 14.9605 11.5955 15.0363L8.38733 25.1671C8.34188 25.3836 8.30579 25.5762 8.27905 25.7446C8.30204 25.8082 8.33987 25.8654 8.38939 25.9114C8.43891 25.9574 8.49869 25.991 8.56378 26.0093C9.84304 23.6029 14.7395 12.0725 15.7822 9.52979C15.3328 10.3316 14.7991 11.0832 14.1901 11.7717Z" fill="white"/>
<path d="M12.2451 14.0254C11.5266 14.2691 10.8224 14.5529 10.1357 14.8756L11.038 14.5347C11.1103 14.4975 11.1922 14.4832 11.2729 14.4937C11.3535 14.5041 11.4291 14.5388 11.4896 14.5932C11.55 14.6476 11.5925 14.719 11.6114 14.7981C11.6303 14.8772 11.6248 14.9602 11.5954 15.0361L8.29902 25.4917C8.27185 25.5745 8.27242 25.664 8.30064 25.7465C8.32886 25.829 8.3832 25.9 8.45542 25.9489C8.93264 23.6989 12.6261 14.0254 12.2451 14.0254Z" fill="#006AB6"/>
<path d="M2.02699 17.7391C3.23006 15.2325 10.6049 2.82775 10.9538 2.09783C11.3548 1.29571 11.7157 1.64463 11.7157 1.64463C11.7609 1.54624 11.7652 1.43392 11.7276 1.33238C11.69 1.23085 11.6136 1.14841 11.5152 1.1032C11.4168 1.058 11.3045 1.05373 11.203 1.09133C11.1015 1.12894 11.019 1.20534 10.9738 1.30373L1.92273 17.2218C1.87458 17.306 1.85861 17.4049 1.87778 17.5C1.89695 17.5951 1.94997 17.6801 2.02699 17.7391Z" fill="#37B3E7"/>
<path d="M17.3866 7.42L9.4744 10.0028C9.40151 10.0303 9.32218 10.0359 9.24613 10.0191C9.17008 10.0022 9.10058 9.96354 9.04614 9.90781C8.9917 9.85209 8.95466 9.78172 8.93956 9.70528C8.92445 9.62885 8.93193 9.54968 8.96109 9.47743C8.96109 9.47743 8.33951 10.3517 8.47987 10.7688C8.62022 11.1859 17.2382 7.56037 17.8879 7.6486C17.8493 7.55367 17.7759 7.47709 17.6827 7.43458C17.5895 7.39207 17.4835 7.38686 17.3866 7.42Z" fill="white"/>
</svg>
