<svg width="402" height="105" viewBox="0 0 402 105" fill="none" xmlns="http://www.w3.org/2000/svg">
<path d="M435.186 104.402C424.174 105.536 416.678 91.9886 411.404 80.2938C406.129 68.5991 398.101 55.4114 387.182 57.2084C383.767 58.225 380.437 59.6132 377.234 61.3555C373.507 62.8466 369.549 63.3201 365.649 62.7411C361.749 62.1622 358.008 60.5455 354.7 58.0102C355.44 58.5631 349.819 81.3997 348.454 82.8927C334.85 96.7162 339.431 65.6961 331.103 61.8808C307.135 50.8219 279.535 59.3649 255.081 50.1031C244.948 46.2601 233.312 36.5836 222.299 37.8831C212.12 39.0995 203.653 47.7531 193.288 47.6702C177.58 47.5043 170.269 46.3431 155.625 53.3655C147.643 57.1808 138.621 54.7478 130.176 52.2872C107.481 45.5966 84.5774 50.6007 61.3732 52.4531C54.4327 53.0337 47.2147 53.7525 41.3384 58.1484C35.4622 62.5443 31.7143 70.1749 27.1336 76.5061C17.9795 89.1303 5.15294 97.1255 -8.74861 98.8727C-25.452 100.891 -44.492 90.8273 -49.0033 71.502C-51.9414 58.8949 -48.2167 45.4584 -43.4971 33.6254C-39.0357 21.5807 -32.7625 10.6167 -24.9893 1.27817C-4.69998 -21.7243 25.9075 -25.8714 53.8312 -22.8025C81.755 -19.7337 109.193 -10.6654 137.117 -12.0754C181.975 -14.3148 225.978 -43.3996 269.818 -31.8155C284.255 -27.9725 297.765 -19.8719 312.317 -16.803C336.979 -11.5777 361.988 -21.1989 386.996 -22.8854C397.43 -23.5766 408.257 -22.8854 417.627 -17.356C437.06 -5.8824 446.453 21.1012 450.756 45.016C453.926 61.9914 456.864 102.163 435.186 104.402Z" fill="#72B8DA"/>
<path d="M-16.9016 5.52739C-16.0821 6.08555 -15.233 6.578 -14.3597 7.00153C-11.6562 7.58563 -10.6394 3.02412 -9.73822 -0.146681C-7.88962 -7.26708 -1.74298 -11.2723 3.84903 -14.4431C8.47055 -17.2245 13.4386 -19.5887 18.4067 -21.8138C30.3401 -23.8698 42.4365 -24.178 54.4315 -22.7317C82.1605 -19.6165 109.728 -10.5213 137.619 -11.9398C182.424 -14.1928 226.375 -43.4532 270.163 -31.7991C284.583 -27.9329 298.077 -19.7834 312.612 -16.696C337.245 -11.4392 362.224 -21.1185 387.203 -22.8151C391.112 -23.1072 395.033 -23.1072 398.942 -22.8151C404.725 -19.8004 410.161 -15.9022 415.117 -11.2166C420.57 -5.81965 424.985 0.936945 428.057 8.58698C429.594 9.06604 431.219 8.91933 432.679 8.16976C439.611 23.7456 444.233 39.9891 442.638 57.8179C442.589 59.6088 442.193 61.3612 441.483 62.9357C439.796 66.1899 436.076 66.8853 432.933 66.2734C417.867 63.3251 409.664 39.9891 394.482 38.0421C383.252 36.6236 373.131 47.7214 361.854 47.3876C355.315 47.1929 349.307 43.132 342.906 41.3519C330.567 37.8474 317.742 42.9095 305.056 42.7983C281.948 42.6036 261.151 25.5536 238.183 23.3284C220.136 21.6596 201.349 28.7244 184.25 34.9269C168.467 40.6566 156.266 48.1942 138.82 46.0525C124.147 44.2168 109.82 38.9321 95.1007 37.7083C75.486 36.2208 55.9672 42.0483 39.2035 54.3967C32.9645 59.0139 27.1415 64.521 20.4865 68.3038C5.28173 76.648 -15.4226 72.5315 -24.0186 55.2589C-31.5055 40.2115 -26.9302 27.9177 -23.3023 12.8147C-22.4242 8.97634 -20.0442 4.1645 -16.9016 5.52739Z" fill="#A9E8F1"/>
<path d="M-14.517 15.1515C-15.4518 12.4984 -15.9703 9.65968 -16.0464 6.77906C-15.7856 6.9289 -15.5141 7.05031 -15.2354 7.14186C-12.5243 7.72793 -11.5047 3.15101 -10.601 -0.0305074C-8.74729 -7.17497 -2.58359 -11.1937 3.02395 -14.3752C7.65832 -17.166 12.6402 -19.5382 17.6221 -21.7709C29.5886 -23.8338 41.7186 -24.1431 53.7468 -22.6918C81.5529 -19.5661 109.197 -10.4402 137.165 -11.8635C182.095 -14.124 226.168 -43.4833 270.078 -31.7898C284.537 -27.9106 298.07 -19.7336 312.645 -16.6358C337.346 -11.3611 362.394 -21.0731 387.443 -22.7755C391.363 -23.0686 395.294 -23.0686 399.214 -22.7755C405.013 -19.7506 410.465 -15.8393 415.434 -11.1379C420.902 -5.72264 425.329 1.05678 428.41 8.73266C429.951 9.21334 431.581 9.06613 433.045 8.31404C435.31 13.2864 437.285 18.4434 438.954 23.7472C429.893 29.3288 419.536 19.9238 409.827 15.598C394.997 8.98383 378.614 15.1515 362.835 15.2632C329.537 15.5143 299.645 -11.1937 266.417 -13.7892C235.714 -16.1892 206.449 2.23007 175.746 4.93715C136.818 8.39775 98.0049 -13.5938 59.4934 -5.89119C34.3289 -0.61657 10.9719 16.7422 -14.517 15.1515Z" fill="#CDEDF9"/>
<path d="M359.41 9.47409C355.872 10.6569 352.226 11.3267 348.552 11.4688C344.804 11.2099 341.104 10.3498 337.551 8.9122C334.73 7.81653 335.963 2.4787 338.784 3.63055C342.056 4.959 345.431 5.90006 348.86 6.43994C352.257 7.30053 355.724 7.70575 359.197 7.64798C360.05 7.64798 360.264 9.24933 359.41 9.44599L359.41 9.47409Z" fill="white"/>
<path d="M292.128 9.90835C287.664 8.89068 283.177 7.87301 278.666 7.08663C276.353 6.69343 277.348 3.08534 279.615 3.64043C284.169 4.70807 288.579 6.31532 292.753 8.4281C293.609 8.86755 292.984 10.1165 292.128 9.90835Z" fill="white"/>
<path d="M255.982 -18.0421C226.262 -13.4635 199.687 6.93244 169.158 6.4607C162.219 6.4607 162.219 -6.05435 169.158 -6.55384C198.577 -8.7183 226.169 -21.8161 255.982 -20.4286C256.24 -20.4286 256.487 -20.3058 256.669 -20.0872C256.851 -19.8687 256.954 -19.5722 256.954 -19.2631C256.954 -18.954 256.851 -18.6576 256.669 -18.439C256.487 -18.2204 256.24 -18.0976 255.982 -18.0976L255.982 -18.0421Z" fill="white"/>
<path d="M113.675 4.46785C107.411 3.80288 101.147 3.80287 94.8831 3.37064C93.6213 3.37064 93.6664 0.278509 94.8831 0.478002C101.17 1.44221 107.388 2.83866 113.675 3.60338C114.035 3.60338 114.058 4.5011 113.675 4.46785Z" fill="white"/>
<path d="M53.078 -5.28424C39.5704 -3.88187 26.1477 -1.51598 12.8837 1.80036C1.62197 4.79044 -8.90725 8.04991 -15.9802 19.5792C-19.963 26.1251 -28.6382 20.4951 -25.2963 13.168C-19.7341 1.07303 -8.93014 -4.88018 2.33159 -6.49644C18.9266 -8.86695 36.3227 -6.254 53.078 -7.43926C54.2683 -7.43926 54.2225 -5.41893 53.078 -5.28424Z" fill="white"/>
</svg>
